<?xml version="1.0" encoding="UTF-8"?>
<svg width="100" height="140" version="1.1" viewBox="0 0 100 140.00001" xmlns="http://www.w3.org/2000/svg">
 <defs>
  <filter id="bo" x="-.09121" y="-.069475" width="1.1824" height="1.139" color-interpolation-filters="sRGB">
   <feGaussianBlur stdDeviation="11.937823"/>
  </filter>
  <filter id="bp" x="-.084697" y="-.067414" width="1.1694" height="1.1348" color-interpolation-filters="sRGB">
   <feGaussianBlur stdDeviation="11.937823"/>
  </filter>
  <filter id="bq" x="-.079052" y="-.065159" width="1.1581" height="1.1303" color-interpolation-filters="sRGB">
   <feGaussianBlur stdDeviation="11.937823"/>
  </filter>
  <filter id="br" x="-.074314" y="-.063051" width="1.1486" height="1.1261" color-interpolation-filters="sRGB">
   <feGaussianBlur stdDeviation="11.937823"/>
  </filter>
  <filter id="bs" x="-.066521" y="-.063049" width="1.133" height="1.1261" color-interpolation-filters="sRGB">
   <feGaussianBlur stdDeviation="11.937823"/>
  </filter>
  <filter id="bt" x="-.06129" y="-.063048" width="1.1226" height="1.1261" color-interpolation-filters="sRGB">
   <feGaussianBlur stdDeviation="11.937823"/>
  </filter>
  <filter id="bu" x="-.059164" y="-.06086" width="1.1183" height="1.1217" color-interpolation-filters="sRGB">
   <feGaussianBlur stdDeviation="11.937823"/>
  </filter>
  <clipPath id="bn">
   <path d="m-121.83 803.45c12.91-1.4147 25.89-2.7621 38.86-2.1006 14.734 0.75151 29.492 4.0884 44.111 2.1006 20.004-2.7199 37.319-15.065 52.513-28.357 14.932-13.063 28.735-27.436 40.96-43.061 12.425-15.88 23.229-33.078 31.508-51.463 8.1544-18.108 13.82-37.269 17.854-56.714 5.0839-24.503 7.6046-49.545 7.3518-74.569-0.22169-21.945-2.5918-43.953-8.4021-65.116-6.039-21.996-15.774-42.94-28.357-61.965-11.12-16.814-24.49-32.176-39.91-45.161-11.714-9.8648-24.673-18.386-38.86-24.156-16.583-6.7449-34.612-9.6168-52.513-9.4524-15.475 0.14215-30.829 2.5065-46.212 4.201-16.046 1.7677-32.172 2.8094-48.312 3.1508-12.612 0.26674-25.248 0.10521-37.809-1.0503-15.749-1.4486-31.501-4.4599-47.262-3.1508-13.55 1.1255-26.712 5.4458-38.86 11.553-13.747 6.911-26.263 16.086-37.809 26.257-15.39 13.556-29.284 29.126-38.86 47.262-6.9484 13.16-11.52 27.473-14.704 42.01-5.1994 23.74-6.7623 48.169-6.3016 72.468 0.31332 16.524 1.5573 33.048 4.201 49.362 4.4062 27.191 12.703 53.718 24.156 78.77 4.4288 9.6876 9.3288 19.161 14.704 28.357 10.761 18.412 23.432 35.713 37.809 51.463 10.729 11.753 22.463 22.687 35.709 31.508 9.6584 6.4316 20.042 11.69 30.458 16.804 7.4822 3.6738 15.052 7.3032 23.106 9.4524 7.8469 2.094 16.06 2.7433 24.156 2.1005 13.907-1.1043 27.228-5.9433 40.96-8.4021 5.2159-0.9339 10.487-1.5233 15.754-2.1005z" fill="#9b00bf"/>
  </clipPath>
  <filter id="bv" x="-.081342" y="-.22868" width="1.1627" height="1.4574" color-interpolation-filters="sRGB">
   <feGaussianBlur stdDeviation="5.9405597"/>
  </filter>
  <filter id="bw" x="-.079255" y="-.24697" width="1.1585" height="1.4939" color-interpolation-filters="sRGB">
   <feGaussianBlur stdDeviation="4.9813453"/>
  </filter>
  <filter id="bx" x="-.12794" y="-.38457" width="1.2559" height="1.7691" color-interpolation-filters="sRGB">
   <feGaussianBlur stdDeviation="14.726639"/>
  </filter>
  <linearGradient id="bf" x1="-115.85" x2="-117.34" y1="389.92" y2="378.04" gradientUnits="userSpaceOnUse">
   <stop offset="0"/>
   <stop stop-opacity="0" offset="1"/>
  </linearGradient>
  <filter id="by" x="-.15969" y="-.48278" width="1.3194" height="1.9656" color-interpolation-filters="sRGB">
   <feGaussianBlur stdDeviation="7.6637533"/>
  </filter>
  <linearGradient id="bg" x1="-122.88" x2="-140.74" y1="394.9" y2="293.02" gradientUnits="userSpaceOnUse">
   <stop offset="0"/>
   <stop stop-opacity="0" offset="1"/>
  </linearGradient>
  <radialGradient id="bm" cx="-151.76" cy="281.41" r="48.837" gradientTransform="matrix(1 0 0 2.4958 0 -420.94)" gradientUnits="userSpaceOnUse">
   <stop stop-color="#6b8e23" offset="0"/>
   <stop stop-color="#6b8e23" stop-opacity="0" offset="1"/>
  </radialGradient>
  <linearGradient id="bh" x1="24.084" x2="73.216" y1="287.45" y2="201.71" gradientUnits="userSpaceOnUse">
   <stop stop-color="#8b4513" offset="0"/>
   <stop stop-color="#8b4513" stop-opacity="0" offset="1"/>
  </linearGradient>
  <linearGradient id="bi" x1="46.241" x2="129.09" y1="208.46" y2="100.56" gradientUnits="userSpaceOnUse">
   <stop stop-color="#556b2f" offset="0"/>
   <stop stop-color="#556b2f" stop-opacity="0" offset="1"/>
  </linearGradient>
  <linearGradient id="bj" x1="61.655" x2="166.66" y1="255.66" y2="157.4" gradientUnits="userSpaceOnUse">
   <stop stop-color="#001800" offset="0"/>
   <stop stop-color="#001800" stop-opacity="0" offset="1"/>
  </linearGradient>
  <filter id="ap" x="-.26303" y="-.18324" width="1.5261" height="1.3665" color-interpolation-filters="sRGB">
   <feGaussianBlur stdDeviation="6.5460553"/>
  </filter>
  <filter id="bz" x="-.52441" y="-.074718" width="2.0488" height="1.1494" color-interpolation-filters="sRGB">
   <feGaussianBlur stdDeviation="10.857121"/>
  </filter>
  <filter id="ca" x="-.4081" y="-.080447" width="1.8162" height="1.1609" color-interpolation-filters="sRGB">
   <feGaussianBlur stdDeviation="12.303063"/>
  </filter>
  <filter id="aq" x="-.37773" y="-.075611" width="1.7555" height="1.1512" color-interpolation-filters="sRGB">
   <feGaussianBlur stdDeviation="9.6513715"/>
  </filter>
  <filter id="ar" x="-.47755" y="-.08729" width="1.9551" height="1.1746" color-interpolation-filters="sRGB">
   <feGaussianBlur stdDeviation="11.877955"/>
  </filter>
  <filter id="as" x="-.3297" y="-.088225" width="1.6594" height="1.1764" color-interpolation-filters="sRGB">
   <feGaussianBlur stdDeviation="11.509375"/>
  </filter>
  <filter id="at" x="-.35196" y="-.097256" width="1.7039" height="1.1945" color-interpolation-filters="sRGB">
   <feGaussianBlur stdDeviation="13.66358"/>
  </filter>
  <filter id="au" x="-1.1201" y="-.11004" width="3.2402" height="1.2201" color-interpolation-filters="sRGB">
   <feGaussianBlur stdDeviation="14.885901"/>
  </filter>
  <filter id="av" x="-1.2122" y="-.093727" width="3.4243" height="1.1875" color-interpolation-filters="sRGB">
   <feGaussianBlur stdDeviation="12.189573"/>
  </filter>
  <filter id="a" x="-.396" y="-.396" width="1.792" height="1.792" color-interpolation-filters="sRGB">
   <feGaussianBlur stdDeviation="3.1790997"/>
  </filter>
  <filter id="aw" x="-.26493" y="-.28804" width="1.5299" height="1.5761" color-interpolation-filters="sRGB">
   <feGaussianBlur stdDeviation="8.043652"/>
  </filter>
  <filter id="ax" x="-.39261" y="-.15827" width="1.7852" height="1.3165" color-interpolation-filters="sRGB">
   <feGaussianBlur stdDeviation="9.2298201"/>
  </filter>
  <filter id="ay" x="-.1608" y="-.082672" width="1.3216" height="1.1653" color-interpolation-filters="sRGB">
   <feGaussianBlur stdDeviation="9.1272341"/>
  </filter>
  <filter id="az" x="-.095384" y="-.18556" width="1.1908" height="1.3711" color-interpolation-filters="sRGB">
   <feGaussianBlur stdDeviation="11.035418"/>
  </filter>
  <filter id="ba" x="-.13828" y="-.2897" width="1.2766" height="1.5794" color-interpolation-filters="sRGB">
   <feGaussianBlur stdDeviation="11.28924"/>
  </filter>
  <filter id="bb" x="-.10288" y="-.45771" width="1.2058" height="1.9154" color-interpolation-filters="sRGB">
   <feGaussianBlur stdDeviation="18.005265"/>
  </filter>
  <filter id="bc" x="-.033967" y="-.081789" width="1.0679" height="1.1636" color-interpolation-filters="sRGB">
   <feGaussianBlur stdDeviation="0.46949564"/>
  </filter>
  <linearGradient id="bk" x1="365.44" x2="385.97" y1="305.12" y2="268.21" gradientUnits="userSpaceOnUse">
   <stop stop-color="#8b4513" offset="0"/>
   <stop stop-color="#8b4513" stop-opacity="0" offset="1"/>
  </linearGradient>
  <linearGradient id="bl" x1="330.32" x2="373.47" y1="341.72" y2="292.32" gradientUnits="userSpaceOnUse">
   <stop stop-color="#280000" offset="0"/>
   <stop stop-color="#280000" stop-opacity="0" offset="1"/>
  </linearGradient>
  <filter id="bd" x="-.039889" y="-.12101" width="1.0798" height="1.242" color-interpolation-filters="sRGB">
   <feGaussianBlur stdDeviation="1.5611539"/>
  </filter>
  <linearGradient id="be" x1="376.33" x2="374.77" y1="1002.6" y2="739.79" gradientUnits="userSpaceOnUse">
   <stop stop-color="#938c3d" offset="0"/>
   <stop stop-color="#938c3d" stop-opacity="0" offset="1"/>
  </linearGradient>
  <filter id="ao" x="-.067896" y="-.30207" width="1.1358" height="1.6041" color-interpolation-filters="sRGB">
   <feGaussianBlur stdDeviation="11.882537"/>
  </filter>
 </defs>
 <g transform="translate(-3.8818e-6 -912.36)">
  <g transform="translate(-11.117 24.034)">
   <g transform="matrix(.13439 0 0 .13303 9.6229 891.53)">
    <rect transform="translate(11.117 -24.034)" y="7.8096e-7" width="744.09" height="1052.4" ry="1.6718" fill="#eee8aa"/>
    <rect transform="translate(11.117 -24.034)" y="774.42" width="744.09" height="277.94" ry=".44155" fill="url(#be)"/>
    <g transform="translate(1372.7 -769.96)" fill="#eee8aa" stroke-width="1px">
     <path d="m-835.33 792.33q-2.9386 0-4.0718 0.67205-1.1333 0.67206-1.1333 2.2929 0 1.2914 0.84336 2.0557 0.85654 0.75112 2.3192 0.75112 2.0162 0 3.2285-1.4232 1.2255-1.4364 1.2255-3.8083v-0.54028h-2.4115zm4.8361-1.0015v8.4204h-2.4247v-2.2402q-0.83018 1.3441-2.0689 1.9898-1.2387 0.63252-3.0308 0.63252-2.2665 0-3.6106-1.265-1.3309-1.2782-1.3309-3.413 0-2.4906 1.6604-3.7556 1.6736-1.265 4.9811-1.265h3.3998v-0.2372q0-1.6735-1.1069-2.5828-1.0937-0.92242-3.0835-0.92242-1.265 0-2.4642 0.30308t-2.3061 0.90925v-2.2402q1.3309-0.51392 2.5828-0.76429 1.2519-0.26355 2.4378-0.26355 3.2021 0 4.7834 1.6604t1.5813 5.0338z"/>
     <path d="m-825.48 779.25h2.4247v20.504h-2.4247v-20.504z"/>
     <path d="m-806.51 787.83q0.90925-1.634 2.1743-2.4115t2.9781-0.77747q2.3061 0 3.5579 1.6208 1.2519 1.6077 1.2519 4.5858v8.908h-2.4378v-8.8289q0-2.1216-0.75111-3.1494-0.75112-1.0278-2.2929-1.0278-1.8844 0-2.9781 1.2519t-1.0937 3.413v8.3414h-2.4378v-8.8289q0-2.1348-0.75111-3.1494-0.75112-1.0278-2.3192-1.0278-1.858 0-2.9518 1.265-1.0937 1.2519-1.0937 3.3998v8.3414h-2.4378v-14.759h2.4378v2.2929q0.83019-1.3573 1.9898-2.003 1.1596-0.6457 2.7541-0.6457 1.6077 0 2.7278 0.817 1.1333 0.81701 1.6735 2.372z"/>
     <path d="m-779.07 791.77v1.186h-11.148q0.15813 2.5037 1.5022 3.8215 1.3573 1.3046 3.7688 1.3046 1.3968 0 2.7014-0.34261 1.3178-0.34262 2.6092-1.0278v2.2929q-1.3046 0.55345-2.675 0.84336-1.3705 0.2899-2.7804 0.2899-3.5316 0-5.6004-2.0557-2.0557-2.0557-2.0557-5.5609 0-3.6238 1.9503-5.7454 1.9634-2.1348 5.2842-2.1348 2.9781 0 4.7044 1.9239 1.7394 1.9107 1.7394 5.2051zm-2.4247-0.71159q-0.0264-1.9898-1.1201-3.1758-1.0806-1.186-2.8727-1.186-2.0293 0-3.2548 1.1464-1.2123 1.1464-1.3968 3.2285l8.6444-0.0132z"/>
     <path d="m-775.09 784.99h2.4247v14.759h-2.4247v-14.759zm0-5.7454h2.4247v3.0704h-2.4247v-3.0704z"/>
     <path d="m-757.89 787.23v-7.9856h2.4247v20.504h-2.4247v-2.2138q-0.76429 1.3178-1.9371 1.9634-1.1596 0.63252-2.7936 0.63252-2.675 0-4.3618-2.1348-1.6735-2.1348-1.6735-5.6136t1.6735-5.6136q1.6867-2.1348 4.3618-2.1348 1.634 0 2.7936 0.6457 1.1728 0.63252 1.9371 1.9503zm-8.2623 5.1524q0 2.675 1.0937 4.2036 1.1069 1.5154 3.0308 1.5154t3.0308-1.5154q1.1069-1.5286 1.1069-4.2036t-1.1069-4.1904q-1.1069-1.5286-3.0308-1.5286t-3.0308 1.5286q-1.0937 1.5154-1.0937 4.1904z"/>
     <path d="m-743.77 792.33q-2.9386 0-4.0718 0.67205-1.1333 0.67206-1.1333 2.2929 0 1.2914 0.84336 2.0557 0.85654 0.75112 2.3192 0.75112 2.0162 0 3.2285-1.4232 1.2255-1.4364 1.2255-3.8083v-0.54028h-2.4115zm4.8362-1.0015v8.4204h-2.4247v-2.2402q-0.83019 1.3441-2.0689 1.9898-1.2387 0.63252-3.0308 0.63252-2.2665 0-3.6106-1.265-1.3309-1.2782-1.3309-3.413 0-2.4906 1.6604-3.7556 1.6736-1.265 4.9811-1.265h3.3998v-0.2372q0-1.6735-1.1069-2.5828-1.0937-0.92242-3.0835-0.92242-1.265 0-2.4642 0.30308t-2.3061 0.90925v-2.2402q1.3309-0.51392 2.5828-0.76429 1.2519-0.26355 2.4378-0.26355 3.2021 0 4.7834 1.6604t1.5813 5.0338z"/>
     <path d="m-721.66 790.84v8.908h-2.4247v-8.8289q0-2.0952-0.81701-3.1362-0.817-1.041-2.451-1.041-1.9634 0-3.0967 1.2519t-1.1333 3.413v8.3414h-2.4378v-20.504h2.4378v8.0383q0.86971-1.3309 2.0425-1.9898 1.186-0.65887 2.7277-0.65887 2.5433 0 3.8478 1.5813 1.3046 1.5681 1.3046 4.6253z"/>
     <path d="m-718.02 791.28h7.1027v2.1611h-7.1027v-2.1611z"/>
     <path d="m-704.41 797.51h9.2901v2.2402h-12.492v-2.2402q1.5154-1.5681 4.1246-4.2036 2.6223-2.6487 3.2944-3.413 1.2782-1.4364 1.779-2.4247 0.51393-1.0015 0.51393-1.9634 0-1.5681-1.1069-2.5564-1.0937-0.98831-2.8595-0.98831-1.2519 0-2.6487 0.43485-1.3836 0.43486-2.9649 1.3178v-2.6882q1.6077-0.64569 3.0045-0.97513t2.5564-0.32944q3.0572 0 4.8757 1.5286t1.8185 4.085q0 1.2123-0.46121 2.3061-0.44804 1.0806-1.6472 2.5564-0.32944 0.38215-2.0952 2.2138-1.7658 1.8185-4.9811 5.0997z"/>
     <path d="m-683.82 781.83q-2.0557 0-3.0967 2.0293-1.0278 2.0162-1.0278 6.0748 0 4.0455 1.0278 6.0748 1.041 2.0162 3.0967 2.0162 2.0689 0 3.0967-2.0162 1.041-2.0293 1.041-6.0748 0-4.0587-1.041-6.0748-1.0278-2.0293-3.0967-2.0293zm0-2.1084q3.3076 0 5.047 2.6223 1.7526 2.6092 1.7526 7.5902 0 4.9679-1.7526 7.5902-1.7394 2.6091-5.047 2.6091t-5.0602-2.6091q-1.7394-2.6223-1.7394-7.5902 0-4.9811 1.7394-7.5902 1.7526-2.6223 5.0602-2.6223z"/>
     <path d="m-671.87 797.51h4.3486v-15.009l-4.7307 0.94878v-2.4247l4.7044-0.94878h2.6618v17.434h4.3486v2.2402h-11.333v-2.2402z"/>
     <path d="m-655.12 780.08h10.45v2.2402h-8.0119v4.823q0.57981-0.19766 1.1596-0.2899 0.57981-0.10542 1.1596-0.10542 3.2944 0 5.2183 1.8053t1.9239 4.8888q0 3.1758-1.9766 4.9416-1.9766 1.7526-5.5741 1.7526-1.2387 0-2.5301-0.21084-1.2782-0.21084-2.6487-0.63252v-2.675q1.186 0.6457 2.451 0.96196t2.675 0.31626q2.2797 0 3.6106-1.1992t1.3309-3.2548-1.3309-3.2548q-1.3309-1.1992-3.6106-1.1992-1.0674 0-2.1348 0.2372-1.0542 0.23719-2.1611 0.73794v-9.8831z"/>
    </g>
    <path transform="matrix(.92237 0 0 1.0824 476.18 -43.072)" d="m-342.9 803.96a210.01 47.205 0 0 1 204.57 -48.301 210.01 47.205 0 0 1 215.32 45.879 210.01 47.205 0 0 1 -203.66 48.494 210.01 47.205 0 0 1 -216.18 -45.675" fill="#696969" filter="url(#bb)"/>
    <path transform="matrix(1.0187 0 0 1.006 488.99 18.273)" d="m-342.9 803.96a210.01 47.205 0 0 1 204.57 -48.301 210.01 47.205 0 0 1 215.32 45.879 210.01 47.205 0 0 1 -203.66 48.494 210.01 47.205 0 0 1 -216.18 -45.675" fill="#1f1d0a" filter="url(#ao)"/>
    <path transform="matrix(.60282 0 0 .59531 433.7 348.03)" d="m-342.9 803.96a210.01 47.205 0 0 1 204.57 -48.301 210.01 47.205 0 0 1 215.32 45.879 210.01 47.205 0 0 1 -203.66 48.494 210.01 47.205 0 0 1 -216.18 -45.675" filter="url(#ao)"/>
    <g transform="translate(329.47 35.644)">
     <path d="m17.452 296.11c4.0352 1.2186 8.0652 2.4509 12.09 3.6969 27.898-65.985 67.285-118.53 117.34-160.2 50.151-41.758 110.94-72.546 181.21-94.799-71.221 18.179-134.78 45.347-188.92 84.921-54.244 39.648-99.071 91.785-132.43 159.65 3.5623 2.2567 7.1312 4.5013 10.707 6.7339z" fill="#556b2f"/>
     <path d="m45.185 267.15c0-0.6638 7.9631-15.031 12.897-23.269 9.5994-16.028 20.826-32.244 31.846-45.998 17.377-21.689 40.457-44.766 62.672-62.664 41.122-33.13 91.22-60.427 149.17-81.277 11.341-4.0803 22.319-7.701 22.575-7.4453 0.1129 0.1129-1.6505 3.441-3.9187 7.3957-28.801 50.215-67.913 96.151-112.19 131.76-43.585 35.056-91.939 60.923-142.58 76.274-8.6902 2.6344-19.305 5.5526-20.198 5.5526-0.15068 0-0.27397-0.15012-0.27397-0.33359z" fill="#6b8e23"/>
     <path d="m31.905 237.62c1.5296-31.678 5.9446-54.93 14.588-76.828 17.202-43.582 49.416-72.639 99.534-89.782 31.85-10.895 68.15-16.987 125.07-20.991 14.523-1.0217 44.911-2.7082 45.115-2.5039 0.0935 0.0935-1.6199 0.65874-3.8076 1.2561-14.42 3.9373-38.473 11.748-53.724 17.446-96.398 36.012-169.25 91.767-221.12 169.24-3.0158 4.5037-5.5919 8.297-5.7247 8.4294s-0.10014-2.6854 0.07255-6.2619z" fill="#9acd32"/>
     <path d="m17.452 296.11c4.0352 1.2186 8.0652 2.4509 12.09 3.6969 27.898-65.985 67.285-118.53 117.34-160.2 50.151-41.758 110.94-72.546 181.21-94.799-71.221 18.179-134.78 45.347-188.92 84.921-54.244 39.648-99.071 91.785-132.43 159.65 3.5623 2.2567 7.1312 4.5013 10.707 6.7339z" fill="url(#bh)"/>
     <path d="m31.905 237.62c1.5296-31.678 5.9446-54.93 14.588-76.828 17.202-43.582 49.416-72.639 99.534-89.782 31.85-10.895 68.15-16.987 125.07-20.991 14.523-1.0217 44.911-2.7082 45.115-2.5039 0.0935 0.0935-1.6199 0.65874-3.8076 1.2561-14.42 3.9373-38.473 11.748-53.724 17.446-96.398 36.012-169.25 91.767-221.12 169.24-3.0158 4.5037-5.5919 8.297-5.7247 8.4294s-0.10014-2.6854 0.07255-6.2619z" fill="url(#bi)"/>
     <path d="m45.185 267.15c0-0.6638 7.9631-15.031 12.897-23.269 9.5994-16.028 20.826-32.244 31.846-45.998 17.377-21.689 40.457-44.766 62.672-62.664 41.122-33.13 91.22-60.427 149.17-81.277 11.341-4.0803 22.319-7.701 22.575-7.4453 0.1129 0.1129-1.6505 3.441-3.9187 7.3957-28.801 50.215-67.913 96.151-112.19 131.76-43.585 35.056-91.939 60.923-142.58 76.274-8.6902 2.6344-19.305 5.5526-20.198 5.5526-0.15068 0-0.27397-0.15012-0.27397-0.33359z" fill="url(#bj)"/>
    </g>
    <path transform="translate(481.68 23.121)" d="m-212.4 391.41c64.848 1.2986 102.68 33.963 148.53-11.882 0.67996-0.67995 3.7748-12.563 1.4853-14.853-25.293-25.293-130.94 7.6562-150.01 26.735z" fill="#9acd32" filter="url(#bw)"/>
    <g transform="translate(481.68 23.121)" clip-path="url(#bn)">
     <path d="m-121.83 803.45c12.91-1.4147 25.89-2.7621 38.86-2.1005 14.734 0.75152 29.492 4.0883 44.111 2.1005 20.004-2.72 37.319-15.065 52.513-28.357 14.932-13.063 28.735-27.436 40.96-43.061 12.425-15.88 23.229-33.078 31.508-51.463 8.1544-18.108 13.82-37.269 17.854-56.714 5.0839-24.503 7.6046-49.545 7.3518-74.569-0.22169-21.945-2.5918-43.953-8.4021-65.116-6.039-21.996-15.774-42.94-28.357-61.965-11.12-16.814-24.49-32.176-39.91-45.161-11.714-9.8648-24.673-18.386-38.86-24.156-16.583-6.7449-34.612-9.6168-52.513-9.4524-15.475 0.14215-30.829 2.5065-46.212 4.201-16.046 1.7677-32.172 2.8094-48.312 3.1508-12.612 0.26674-25.248 0.10521-37.809-1.0503-15.749-1.4486-31.501-4.4599-47.262-3.1508-13.55 1.1255-26.712 5.4458-38.86 11.553-13.747 6.911-26.263 16.086-37.809 26.257-15.39 13.556-29.284 29.126-38.86 47.262-6.9484 13.16-11.52 27.473-14.704 42.01-5.1994 23.74-6.7623 48.169-6.3016 72.468 0.31332 16.524 1.5573 33.048 4.201 49.362 4.4062 27.191 12.703 53.718 24.156 78.77 4.4288 9.6876 9.3288 19.161 14.704 28.357 10.761 18.412 23.432 35.713 37.809 51.463 10.729 11.753 22.463 22.688 35.709 31.508 9.6584 6.4316 20.042 11.69 30.458 16.804 7.4822 3.6738 15.052 7.3031 23.106 9.4524 7.8469 2.094 16.06 2.7434 24.156 2.1005 13.907-1.1042 27.228-5.9433 40.96-8.4021 5.2159-0.93391 10.487-1.5233 15.754-2.1005z" fill="#540000" filter="url(#bu)"/>
     <path d="m-122.14 795.66c12.462-1.3656 24.991-2.6662 37.511-2.0276 14.223 0.72544 28.469 3.9464 42.58 2.0276 19.31-2.6256 36.024-14.542 50.691-27.373 14.414-12.61 27.738-26.484 39.539-41.567 11.994-15.329 22.423-31.93 30.415-49.677 7.8714-17.479 13.34-35.976 17.235-54.746 4.9074-23.653 7.3407-47.826 7.0967-71.981-0.214-21.184-2.5019-42.428-8.1105-62.857-5.8294-21.233-15.227-41.45-27.373-59.815-10.734-16.231-23.641-31.06-38.525-43.594-11.308-9.5225-23.817-17.748-37.511-23.318-16.008-6.5109-33.41-9.2831-50.691-9.1244-14.938 0.13722-29.759 2.4195-44.608 4.0553-15.49 1.7064-31.056 2.7119-46.636 3.0414-12.174 0.25748-24.372 0.10156-36.497-1.0138-15.202-1.3983-30.408-4.3052-45.622-3.0414-13.08 1.0865-25.785 5.2568-37.511 11.152-13.27 6.6711-25.352 15.528-36.497 25.345-14.856 13.085-28.268 28.115-37.511 45.622-6.7073 12.704-11.12 26.52-14.193 40.553-5.019 22.917-6.5276 46.498-6.0829 69.953 0.30245 15.951 1.5033 31.901 4.0553 47.649 4.2533 26.248 12.262 51.854 23.318 76.036 4.2752 9.3514 9.0051 18.496 14.193 27.373 10.387 17.773 22.618 34.473 36.497 49.677 10.357 11.345 21.684 21.9 34.47 30.415 9.3232 6.2084 19.346 11.284 29.401 16.221 7.2226 3.5464 14.53 7.0497 22.304 9.1244 7.5746 2.0214 15.503 2.6482 23.318 2.0276 13.425-1.0659 26.283-5.737 39.539-8.1105 5.0349-0.9015 10.123-1.4704 15.207-2.0276z" fill="#7d0000" filter="url(#bt)"/>
     <path d="m-123.35 795.66c11.475-1.363 23.023-2.6555 34.561-2.0276 13.109 0.71326 26.238 3.8971 39.232 2.0276 9.0808-1.3064 17.687-5.059 25.422-9.9931 7.7344-4.9342 14.655-11.037 21.283-17.38 13.329-12.756 25.626-26.611 36.43-41.567 11.158-15.446 20.72-32.077 28.023-49.677 7.2951-17.581 12.308-36.05 15.88-54.746 4.5276-23.703 6.7595-47.85 6.5387-71.981-0.19354-21.149-2.2831-42.353-7.4728-62.857-5.3293-21.055-13.919-41.268-25.221-59.815-9.7836-16.056-21.625-30.901-35.496-43.594-10.298-9.4244-21.784-17.696-34.562-23.318-14.629-6.436-30.723-9.2706-46.705-9.1244-13.775 0.12601-27.423 2.4164-41.1 4.0553-14.262 1.7089-28.608 2.7127-42.968 3.0414-11.218 0.25682-22.462 0.10102-33.627-1.0138-14.006-1.3984-28.016-4.3063-42.034-3.0414-12.141 1.0954-23.858 5.318-34.561 11.152-12.361 6.7373-23.464 15.604-33.627 25.345-13.845 13.271-26.148 28.388-34.562 45.622-6.2478 12.799-10.27 26.59-13.077 40.553-4.6208 22.978-6.0115 46.519-5.6046 69.953 0.27679 15.941 1.3815 31.881 3.7364 47.649 3.9004 26.117 11.234 51.7 21.484 76.036 3.9265 9.3229 8.2801 18.467 13.077 27.373 9.4991 17.635 20.744 34.338 33.627 49.677 9.4516 11.253 19.839 21.819 31.759 30.415 8.5436 6.1603 17.799 11.256 27.089 16.221 6.623 3.5396 13.334 7.0446 20.55 9.1244 6.9505 2.0033 14.277 2.6409 21.484 2.0276 12.41-1.056 24.204-5.7328 36.43-8.1105 4.6334-0.90117 9.3241-1.4708 14.011-2.0276z" fill="#9a0000" filter="url(#bs)"/>
     <path d="m-124.71 795.66c10.262-1.3589 20.604-2.638 30.938-2.0276 11.74 0.6935 23.495 3.817 35.118 2.0276 8.3958-1.2925 16.253-5.1204 23.147-10.083 6.8946-4.9623 12.902-11.046 18.66-17.29 11.953-12.962 23.008-26.779 32.61-41.567 10.123-15.59 18.617-32.251 25.084-49.677 6.57-17.701 11.034-36.135 14.215-54.746 4.0606-23.76 6.0476-47.877 5.853-71.981-0.17035-21.111-2.0228-42.268-6.6892-62.857-4.7256-20.851-12.336-41.048-22.576-59.815-8.6396-15.834-19.176-30.684-31.774-43.594-9.0635-9.2883-19.278-17.619-30.938-23.318-12.93-6.3201-27.416-9.2511-41.807-9.1244-12.347 0.10872-24.553 2.4116-36.791 4.0553-12.753 1.7128-25.6 2.714-38.463 3.0414-10.044 0.25564-20.116 0.0996-30.101-1.0138-12.536-1.3978-25.076-4.3052-37.627-3.0414-10.998 1.1074-21.494 5.4071-30.938 11.152-11.242 6.8386-21.135 15.715-30.101 25.345-12.58 13.512-23.52 28.716-30.938 45.622-5.6662 12.914-9.2182 26.671-11.706 40.553-4.1305 23.047-5.3778 46.542-5.0169 69.953 0.24559 15.93 1.233 31.859 3.3446 47.649 3.4726 25.969 9.9901 51.52 19.231 76.036 3.5014 9.289 7.3932 18.432 11.706 27.373 8.4252 17.466 18.465 34.164 30.101 49.677 8.3497 11.131 17.578 21.705 28.429 30.415 7.59 6.0919 15.902 11.215 24.248 16.221 5.8837 3.5287 11.86 7.0363 18.395 9.1244 6.1818 1.9752 12.77 2.6295 19.231 2.0276 11.169-1.0403 21.649-5.7259 32.61-8.1105 4.1395-0.90059 8.3426-1.4715 12.542-2.0276z" fill="#a80000" filter="url(#br)"/>
     <path d="m-136.69 785.49c9.6438-1.3138 19.368-2.5477 29.083-1.962 11.038 0.66543 22.089 3.6707 33.014 1.962 7.9668-1.246 15.395-4.97 21.867-9.7792 6.4727-4.8091 12.067-10.69 17.435-16.708 11.233-12.595 21.643-25.953 30.655-40.221 9.5503-15.119 17.517-31.246 23.581-48.07 6.1838-17.156 10.376-34.984 13.363-52.975 3.8193-23.004 5.6846-46.334 5.5023-69.652-0.1597-20.419-1.8975-40.881-6.2883-60.823-4.4323-20.13-11.568-39.668-21.223-57.88-8.095-15.269-17.984-29.637-29.869-42.184-8.4808-8.9531-18.063-17.028-29.083-22.563-12.112-6.0836-25.749-8.9464-39.302-8.8291-11.612 0.10046-23.083 2.3322-34.586 3.9241-11.984 1.6585-24.063 2.6266-36.158 2.943-9.4427 0.24701-18.913 0.0959-28.297-0.981-11.784-1.3523-23.573-4.165-35.372-2.943-10.376 1.0746-20.242 5.2558-29.083 10.791-10.614 6.645-19.901 15.235-28.297 24.525-11.87 13.133-22.136 27.863-29.083 44.146-5.3432 12.523-8.6715 25.827-11.005 39.24-3.8814 22.316-5.0548 45.041-4.7162 67.69 0.23036 15.412 1.1583 30.823 3.1441 46.108 3.2604 25.096 9.377 49.812 18.079 73.576 3.2886 8.9806 6.9458 17.827 11.005 26.487 7.9028 16.862 17.334 33.017 28.297 48.07 7.8221 10.74 16.478 20.973 26.725 29.43 7.121 5.877 14.941 10.842 22.795 15.696 5.5189 3.4114 11.128 6.8062 17.293 8.8291 5.8005 1.9034 12.002 2.5412 18.079 1.962 10.516-1.0022 20.347-5.5387 30.655-7.8481 3.8891-0.87127 7.8416-1.424 11.791-1.962z" fill="#c30000" filter="url(#bq)"/>
     <path d="m-149.21 776.37c8.9977-1.2684 18.076-2.4564 27.145-1.8964 10.304 0.63624 20.618 3.5199 30.813 1.8964 7.5245-1.1982 14.507-4.8216 20.538-9.4786 6.0305-4.657 11.189-10.335 16.145-16.123 10.475-12.236 20.213-25.132 28.612-38.876 8.9534-14.651 16.368-30.245 22.009-46.462 5.7791-16.613 9.6872-33.836 12.472-51.203 3.5673-22.248 5.3054-44.791 5.1355-67.323-0.1487-19.727-1.7668-39.493-5.8692-58.789-4.1258-19.406-10.766-38.285-19.809-55.944-7.5263-14.699-16.739-28.582-27.879-40.773-7.8704-8.6132-16.789-16.434-27.145-21.809-11.253-5.8413-24.004-8.6407-36.682-8.5339-10.844 0.0914-21.546 2.2526-32.281 3.7928-11.181 1.6043-22.457 2.5393-33.748 2.8446-8.8141 0.23829-17.656 0.0919-26.411-0.9482-10.999-1.3066-22.001-4.0243-33.014-2.8446-9.7275 1.042-18.936 5.1082-27.145 10.43-9.9586 6.4564-18.611 14.76-26.411 23.705-11.129 12.762-20.689 27.016-27.145 42.669-5.0049 12.134-8.0996 24.983-10.271 37.928-3.621 21.586-4.717 43.541-4.4019 65.426 0.21444 14.893 1.0803 29.787 2.9346 44.566 3.0388 24.22 8.7365 48.101 16.874 71.115 3.0662 8.6717 6.4781 17.222 10.271 25.602 7.3572 16.253 16.154 31.865 26.411 46.462 7.2701 10.346 15.326 20.237 24.944 28.446 6.6304 5.6596 13.937 10.466 21.276 15.171 5.1366 3.2935 10.361 6.5756 16.14 8.5339 5.4011 1.8302 11.198 2.4522 16.874 1.8964 9.836-0.9632 18.985-5.351 28.612-7.5857 3.6272-0.84192 7.3176-1.3766 11.005-1.8964z" fill="#da0000" filter="url(#bp)"/>
     <path d="m-161.74 771.41c8.3509-1.2289 16.783-2.3756 25.207-1.8402 9.5704 0.60836 19.147 3.379 28.613 1.8402 7.0984-1.154 13.645-4.7 19.231-9.2296 5.5858-4.5296 10.297-10.031 14.832-15.613 9.708-11.949 18.781-24.443 26.569-37.724 8.3619-14.259 15.221-29.399 20.438-45.084 5.3733-16.156 8.9985-32.856 11.581-49.685 3.3158-21.604 4.9263-43.47 4.7688-65.326-0.13788-19.131-1.6363-38.298-5.4501-57.045-3.8189-18.773-9.9621-37.083-18.394-54.285-6.9566-14.192-15.492-27.658-25.888-39.564-7.2546-8.3084-15.505-15.914-25.207-21.162-10.387-5.6185-22.254-8.3762-34.063-8.2808-10.077 0.0814-20.01 2.1838-29.975 3.6804-10.376 1.5583-20.849 2.4648-31.338 2.7602-8.1855 0.23062-16.399 0.0882-24.525-0.92008-10.213-1.2672-20.429-3.9027-30.657-2.7603-9.0875 1.0151-17.636 4.992-25.207 10.121-9.3097 6.3076-17.324 14.365-24.525 23.002-10.391 12.463-19.243 26.313-25.207 41.404-4.6672 11.81-7.528 24.265-9.5376 36.804-3.3603 20.965-4.3792 42.256-4.0875 63.486 0.1985 14.449 1.0023 28.897 2.725 43.244 2.8172 23.461 8.0958 46.623 15.669 69.007 2.8436 8.4046 6.0102 16.701 9.5376 24.842 6.8109 15.719 14.973 30.863 24.525 45.084 6.7153 9.9974 14.168 19.593 23.163 27.603 6.1384 5.4661 12.933 10.139 19.756 14.721 4.7518 3.1909 9.5899 6.3768 14.988 8.2808 4.9996 1.7636 10.394 2.3743 15.669 1.8402 9.1596-0.92756 17.622-5.1892 26.569-7.3607 3.3647-0.81665 6.7934-1.3361 10.219-1.8402z" fill="#ec0000" filter="url(#bo)"/>
    </g>
    <path transform="translate(481.68 23.121)" d="m-136.65 357.24c-22.061-6.2679-59.65 0.23864-72.779 13.368-54.358 54.358 131.49 36.348 135.16 32.676 29.179-29.179 61.461-50.5-14.853-50.5-18.341 0-32.346 4.4559-47.529 4.4559z" fill="none" filter="url(#bv)" opacity=".2" stroke="#fff" stroke-width="10"/>
    <path transform="translate(481.68 23.121)" d="m-225.76 370.61c-45.786 59.74 100.72 75.149 155.96 47.529 10.119-5.0593 30.263-27.292 37.132-34.162 5.6318-5.6318-6.0644-22.279 1.4853-22.279 10.927 0 4.4362 37.172 1.4853 43.074-9.451 18.902-46.756 22.991-62.382 38.618-30.581 30.581-147.98-15.79-163.38-31.191-4.8924-4.8924-35.413 16.338-44.559 16.338-2.9706 0 0-5.9412 0-8.9118 0-29.122 55.319-41.437 74.265-49.015z" fill="#fff" filter="url(#bx)" opacity=".4888"/>
    <path transform="translate(481.68 23.121)" d="m-183.31 395.24c44.951 0.90014 71.178 23.542 102.96-8.2365 0.47133-0.47132 2.6166-8.7086 1.0296-10.296-17.533-17.533-90.761 5.307-103.99 18.532z" fill="url(#bf)" opacity=".4888"/>
    <path transform="translate(481.68 23.121)" d="m-79.82 359.19c-0.84199 2.1564-3.6547-1.8486-5.2513-1.0503-0.83317 0.41659-1.9874 2.044-2.1005 2.1005-3.9066 1.9533-9.8752 0.42285-12.603 3.1508-2.6256 2.6257-13.128-2.6256-15.754 0-1.2209 1.2209-3.7412 2.691-5.2513 4.201-1.3856 1.3856-16.275-1.315-18.905 0-4.7374 2.3687-6.5882 6.3016-12.603 6.3016-5.5122 0-22.204 5.3993-26.257 9.4524-0.49509 0.4951-1.4743-0.31312-2.1005 0-1.4474 0.72369-1.4129 2.4632-2.1005 3.1508-0.35009 0.35009-2.8007 0.70017-3.1508 1.0503-0.4951 0.4951-0.4951 1.6054 0 2.1005 0.70018 0.70018 3.5009-0.70017 4.201 0 1.6581 1.6581 5.4644 0.21314 6.3016 1.0503 0.4951 0.49509-0.70018 2.1005 0 2.1005 2.5358 0 1.5518-1.301 3.1508-2.1005 3.1018-1.5509 12.346 2.3574 14.704 0 0.5092-0.50921 1.347-1.9521 3.1508-1.0503 2.1288 1.0644 2.0427 2.0427 3.1508 3.1508 0.63424 0.63424 5.3056 0 6.3016 0 3.5416 0 11.62-1.5418 14.704 0 0.31313 0.15656-0.24755 0.80271 0 1.0503 0.8831 0.8831 15.863 0.99577 17.854 0 2.0573-1.0287 7.4942 1.1926 8.4021 2.1005 0.40923 0.40923 3.5601 0 4.201 0 13.422 0 16.719-3.0654 23.106-9.4524 0.89446-0.89446 3.3449-1.4384 4.201-3.1508 0.25285-0.50569 2.1174-16.787 1.0503-17.854-0.4951-0.49509-1.6054 0.4951-2.1005 0-3.1277-3.1277-6.3016 0.70172-6.3016-6.3016z" fill="#adff2f" filter="url(#by)" opacity=".4"/>
    <path transform="translate(481.68 23.121)" d="m-151.24 398.05 34.659 5.2513 13.653-3.1508s-13.653-79.82-21.005-99.775-35.709-133.38-35.709-137.58-40.96-3.1508-40.96-3.1508l22.055 42.01s15.754 42.01 17.854 46.212c2.1005 4.201 8.4021 27.307 13.653 51.463 5.2513 24.156 5.2513 36.759 5.2513 40.96s-9.4524 57.764-9.4524 57.764z" fill="#7d2310"/>
    <path transform="translate(481.68 23.121)" d="m-151.24 398.05 34.659 5.2513 13.653-3.1508s-13.653-79.82-21.005-99.775-35.709-133.38-35.709-137.58-40.96-3.1508-40.96-3.1508l22.055 42.01s15.754 42.01 17.854 46.212c2.1005 4.201 8.4021 27.307 13.653 51.463 5.2513 24.156 5.2513 36.759 5.2513 40.96s-9.4524 57.764-9.4524 57.764z" fill="url(#bg)"/>
    <path transform="translate(481.68 23.121)" d="m-151.24 398.05 34.659 5.2513 13.653-3.1508s-13.653-79.82-21.005-99.775-35.709-133.38-35.709-137.58-40.96-3.1508-40.96-3.1508l22.055 42.01s15.754 42.01 17.854 46.212c2.1005 4.201 8.4021 27.307 13.653 51.463 5.2513 24.156 5.2513 36.759 5.2513 40.96s-9.4524 57.764-9.4524 57.764z" fill="url(#bm)"/>
    <path transform="matrix(.9771 .21277 -.21277 .9771 579.51 96.474)" d="m-321.76 492.21a29.864 42.87 0 0 1 29.09 -43.866 29.864 42.87 0 0 1 30.619 41.665 29.864 42.87 0 0 1 -28.961 44.041 29.864 42.87 0 0 1 -30.741 -41.48" fill="#fff" filter="url(#ap)" opacity=".12"/>
    <path transform="matrix(.76796 -.6405 .6405 .76796 402.8 -98.993)" d="m-321.76 492.21a29.864 42.87 0 0 1 29.09 -43.866 29.864 42.87 0 0 1 30.619 41.665 29.864 42.87 0 0 1 -28.961 44.041 29.864 42.87 0 0 1 -30.741 -41.48" fill="#fff" filter="url(#ap)" opacity=".12"/>
    <path transform="translate(481.68 23.121)" d="m-226.39 467.6c-32.354 85.034 7.0839 275.08 72.252 313.09" fill="none" filter="url(#as)" opacity=".3608" stroke="#570000" stroke-opacity=".97255" stroke-width="8"/>
    <path transform="translate(481.68 23.121)" d="m-185.93 454.11c-25.201 105.33 8.6742 253.92 51.058 326.58" fill="none" filter="url(#ar)" opacity=".3608" stroke="#570000" stroke-opacity=".97255" stroke-width="8"/>
    <path transform="translate(481.68 23.121)" d="m-280.34 435.81c-24.023 116.05-9.8984 267.62 82.849 337.18" fill="none" filter="url(#at)" opacity=".3608" stroke="#570000" stroke-opacity=".97255" stroke-width="8"/>
    <path transform="translate(481.68 23.121)" d="m-135.83 468.56c-5.2654 10.986 10.177 22.034 4.8168 32.754-11.229 22.459-5.3712 82.704 3.8535 101.15 6.1848 12.37-2.4335 32.654 0.96336 46.241 9.8562 39.425 18.865 91.2 8.6703 131.98" fill="none" filter="url(#av)" opacity=".3608" stroke="#570000" stroke-opacity=".97255" stroke-width="8"/>
    <path transform="translate(481.68 23.121)" d="m-78.996 448.33c20.506 44.034 8.2411 97.081 18.304 147.39 3.2921 16.46 12.928 29.21 8.6703 46.241-8.6284 34.514-11.82 65.066-26.974 95.373-4.492 8.984-1.4493 26.028-3.8535 35.644" fill="none" filter="url(#au)" opacity=".3608" stroke="#570000" stroke-opacity=".97255" stroke-width="8"/>
    <path transform="translate(481.68 23.121)" d="m-42.388 431.96c10.611 21.138 21.374 41.361 26.011 64.545 3.4174 17.087 6.2807 175.26 2.8901 188.82-3.9369 15.747-39.986 87.191-48.168 95.373" fill="none" filter="url(#bz)" opacity=".3608" stroke="#570000" stroke-opacity=".97255" stroke-width="8"/>
    <path transform="translate(481.68 23.121)" d="m-47.205 416.54c26.474 25.06 42.246 58.48 53.948 81.886 9.3668 18.734 8.8175 156.44 3.8535 176.3-4.0997 16.399-11.142 32.672-17.341 48.168" fill="none" filter="url(#aq)" opacity=".3608" stroke="#570000" stroke-opacity=".97255" stroke-width="8"/>
    <path transform="translate(481.68 23.121)" d="m-8.6703 396.31c99.9 52.313 85.923 322.63-2.8901 367.04" fill="none" filter="url(#ca)" opacity=".3608" stroke="#570000" stroke-opacity=".97255" stroke-width="8"/>
    <path transform="matrix(.74888 0 0 .74888 407.92 178.5)" d="m-286.12 601.74a9.6336 9.6336 0 0 1 9.3837 -9.8574 9.6336 9.6336 0 0 1 9.8771 9.363 9.6336 9.6336 0 0 1 -9.3422 9.8968 9.6336 9.6336 0 0 1 -9.9164 -9.3214" fill="#ffa500" filter="url(#a)" opacity=".2"/>
    <path transform="matrix(.74888 0 0 .74888 441.63 223.78)" d="m-286.12 601.74a9.6336 9.6336 0 0 1 9.3837 -9.8574 9.6336 9.6336 0 0 1 9.8771 9.363 9.6336 9.6336 0 0 1 -9.3422 9.8968 9.6336 9.6336 0 0 1 -9.9164 -9.3214" fill="#ffa500" filter="url(#a)" opacity=".2"/>
    <path transform="matrix(.58147 0 0 .58147 357.78 312.92)" d="m-286.12 601.74a9.6336 9.6336 0 0 1 9.3837 -9.8574 9.6336 9.6336 0 0 1 9.8771 9.363 9.6336 9.6336 0 0 1 -9.3422 9.8968 9.6336 9.6336 0 0 1 -9.9164 -9.3214" fill="#ffa500" filter="url(#a)" opacity=".2"/>
    <path transform="matrix(.58147 0 0 .58147 374.15 375.54)" d="m-286.12 601.74a9.6336 9.6336 0 0 1 9.3837 -9.8574 9.6336 9.6336 0 0 1 9.8771 9.363 9.6336 9.6336 0 0 1 -9.3422 9.8968 9.6336 9.6336 0 0 1 -9.9164 -9.3214" fill="#ffa500" filter="url(#a)" opacity=".2"/>
    <path transform="matrix(.58147 0 0 .58147 421.36 415.04)" d="m-286.12 601.74a9.6336 9.6336 0 0 1 9.3837 -9.8574 9.6336 9.6336 0 0 1 9.8771 9.363 9.6336 9.6336 0 0 1 -9.3422 9.8968 9.6336 9.6336 0 0 1 -9.9164 -9.3214" fill="#ffa500" filter="url(#a)" opacity=".2"/>
    <path transform="matrix(.58147 0 0 .58147 416.54 369.76)" d="m-286.12 601.74a9.6336 9.6336 0 0 1 9.3837 -9.8574 9.6336 9.6336 0 0 1 9.8771 9.363 9.6336 9.6336 0 0 1 -9.3422 9.8968 9.6336 9.6336 0 0 1 -9.9164 -9.3214" fill="#ffa500" filter="url(#a)" opacity=".2"/>
    <path transform="matrix(.58147 0 0 .58147 453.15 431.41)" d="m-286.12 601.74a9.6336 9.6336 0 0 1 9.3837 -9.8574 9.6336 9.6336 0 0 1 9.8771 9.363 9.6336 9.6336 0 0 1 -9.3422 9.8968 9.6336 9.6336 0 0 1 -9.9164 -9.3214" fill="#ffa500" filter="url(#a)" opacity=".2"/>
    <path transform="matrix(.58147 0 0 .58147 361.63 224.29)" d="m-286.12 601.74a9.6336 9.6336 0 0 1 9.3837 -9.8574 9.6336 9.6336 0 0 1 9.8771 9.363 9.6336 9.6336 0 0 1 -9.3422 9.8968 9.6336 9.6336 0 0 1 -9.9164 -9.3214" fill="#ffa500" filter="url(#a)" opacity=".2"/>
    <path transform="matrix(.58147 0 0 .58147 378.01 240.67)" d="m-286.12 601.74a9.6336 9.6336 0 0 1 9.3837 -9.8574 9.6336 9.6336 0 0 1 9.8771 9.363 9.6336 9.6336 0 0 1 -9.3422 9.8968 9.6336 9.6336 0 0 1 -9.9164 -9.3214" fill="#ffa500" filter="url(#a)" opacity=".2"/>
    <path transform="matrix(.58147 0 0 .58147 304.79 262.83)" d="m-286.12 601.74a9.6336 9.6336 0 0 1 9.3837 -9.8574 9.6336 9.6336 0 0 1 9.8771 9.363 9.6336 9.6336 0 0 1 -9.3422 9.8968 9.6336 9.6336 0 0 1 -9.9164 -9.3214" fill="#ffa500" filter="url(#a)" opacity=".2"/>
    <path transform="matrix(.58147 0 0 .58147 343.33 339.9)" d="m-286.12 601.74a9.6336 9.6336 0 0 1 9.3837 -9.8574 9.6336 9.6336 0 0 1 9.8771 9.363 9.6336 9.6336 0 0 1 -9.3422 9.8968 9.6336 9.6336 0 0 1 -9.9164 -9.3214" fill="#ffa500" filter="url(#a)" opacity=".2"/>
    <path transform="matrix(.58147 0 0 .58147 397.27 290.76)" d="m-286.12 601.74a9.6336 9.6336 0 0 1 9.3837 -9.8574 9.6336 9.6336 0 0 1 9.8771 9.363 9.6336 9.6336 0 0 1 -9.3422 9.8968 9.6336 9.6336 0 0 1 -9.9164 -9.3214" fill="#ffa500" filter="url(#a)" opacity=".2"/>
    <path transform="matrix(.58147 0 0 .58147 444.48 330.26)" d="m-286.12 601.74a9.6336 9.6336 0 0 1 9.3837 -9.8574 9.6336 9.6336 0 0 1 9.8771 9.363 9.6336 9.6336 0 0 1 -9.3422 9.8968 9.6336 9.6336 0 0 1 -9.9164 -9.3214" fill="#ffa500" filter="url(#a)" opacity=".2"/>
    <path transform="matrix(.58147 0 0 .58147 439.66 284.98)" d="m-286.12 601.74a9.6336 9.6336 0 0 1 9.3837 -9.8574 9.6336 9.6336 0 0 1 9.8771 9.363 9.6336 9.6336 0 0 1 -9.3422 9.8968 9.6336 9.6336 0 0 1 -9.9164 -9.3214" fill="#ffa500" filter="url(#a)" opacity=".2"/>
    <path transform="matrix(.58147 0 0 .58147 476.27 346.64)" d="m-286.12 601.74a9.6336 9.6336 0 0 1 9.3837 -9.8574 9.6336 9.6336 0 0 1 9.8771 9.363 9.6336 9.6336 0 0 1 -9.3422 9.8968 9.6336 9.6336 0 0 1 -9.9164 -9.3214" fill="#ffa500" filter="url(#a)" opacity=".2"/>
    <path transform="matrix(.58147 0 0 .58147 318.28 161.67)" d="m-286.12 601.74a9.6336 9.6336 0 0 1 9.3837 -9.8574 9.6336 9.6336 0 0 1 9.8771 9.363 9.6336 9.6336 0 0 1 -9.3422 9.8968 9.6336 9.6336 0 0 1 -9.9164 -9.3214" fill="#ffa500" filter="url(#a)" opacity=".2"/>
    <path transform="matrix(.58147 0 0 .58147 334.66 224.29)" d="m-286.12 601.74a9.6336 9.6336 0 0 1 9.3837 -9.8574 9.6336 9.6336 0 0 1 9.8771 9.363 9.6336 9.6336 0 0 1 -9.3422 9.8968 9.6336 9.6336 0 0 1 -9.9164 -9.3214" fill="#ffa500" filter="url(#a)" opacity=".2"/>
    <path transform="matrix(.58147 0 0 .58147 303.83 188.65)" d="m-286.12 601.74a9.6336 9.6336 0 0 1 9.3837 -9.8574 9.6336 9.6336 0 0 1 9.8771 9.363 9.6336 9.6336 0 0 1 -9.3422 9.8968 9.6336 9.6336 0 0 1 -9.9164 -9.3214" fill="#ffa500" filter="url(#a)" opacity=".2"/>
    <path transform="matrix(.58147 0 0 .58147 640.04 352.42)" d="m-286.12 601.74a9.6336 9.6336 0 0 1 9.3837 -9.8574 9.6336 9.6336 0 0 1 9.8771 9.363 9.6336 9.6336 0 0 1 -9.3422 9.8968 9.6336 9.6336 0 0 1 -9.9164 -9.3214" fill="#ffa500" filter="url(#a)" opacity=".2"/>
    <path transform="matrix(.58147 0 0 .58147 656.42 415.04)" d="m-286.12 601.74a9.6336 9.6336 0 0 1 9.3837 -9.8574 9.6336 9.6336 0 0 1 9.8771 9.363 9.6336 9.6336 0 0 1 -9.3422 9.8968 9.6336 9.6336 0 0 1 -9.9164 -9.3214" fill="#ffa500" filter="url(#a)" opacity=".2"/>
    <path transform="matrix(.58147 0 0 .58147 625.59 379.39)" d="m-286.12 601.74a9.6336 9.6336 0 0 1 9.3837 -9.8574 9.6336 9.6336 0 0 1 9.8771 9.363 9.6336 9.6336 0 0 1 -9.3422 9.8968 9.6336 9.6336 0 0 1 -9.9164 -9.3214" fill="#ffa500" filter="url(#a)" opacity=".2"/>
    <path transform="matrix(.58147 0 0 .58147 421.36 415.04)" d="m-286.12 601.74a9.6336 9.6336 0 0 1 9.3837 -9.8574 9.6336 9.6336 0 0 1 9.8771 9.363 9.6336 9.6336 0 0 1 -9.3422 9.8968 9.6336 9.6336 0 0 1 -9.9164 -9.3214" fill="#ffa500" filter="url(#a)" opacity=".2"/>
    <path transform="matrix(.58147 0 0 .58147 453.15 431.41)" d="m-286.12 601.74a9.6336 9.6336 0 0 1 9.3837 -9.8574 9.6336 9.6336 0 0 1 9.8771 9.363 9.6336 9.6336 0 0 1 -9.3422 9.8968 9.6336 9.6336 0 0 1 -9.9164 -9.3214" fill="#ffa500" filter="url(#a)" opacity=".2"/>
    <path transform="matrix(.58147 0 0 -.58147 666.05 1003.8)" d="m-286.12 601.74a9.6336 9.6336 0 0 1 9.3837 -9.8574 9.6336 9.6336 0 0 1 9.8771 9.363 9.6336 9.6336 0 0 1 -9.3422 9.8968 9.6336 9.6336 0 0 1 -9.9164 -9.3214" fill="#ffa500" filter="url(#a)" opacity=".2"/>
    <path transform="matrix(.58147 0 0 -.58147 682.43 941.15)" d="m-286.12 601.74a9.6336 9.6336 0 0 1 9.3837 -9.8574 9.6336 9.6336 0 0 1 9.8771 9.363 9.6336 9.6336 0 0 1 -9.3422 9.8968 9.6336 9.6336 0 0 1 -9.9164 -9.3214" fill="#ffa500" filter="url(#a)" opacity=".2"/>
    <path transform="matrix(.58147 0 0 -.58147 651.6 976.8)" d="m-286.12 601.74a9.6336 9.6336 0 0 1 9.3837 -9.8574 9.6336 9.6336 0 0 1 9.8771 9.363 9.6336 9.6336 0 0 1 -9.3422 9.8968 9.6336 9.6336 0 0 1 -9.9164 -9.3214" fill="#ffa500" filter="url(#a)" opacity=".2"/>
    <path transform="matrix(.58147 0 0 -.58147 685.32 1072.2)" d="m-286.12 601.74a9.6336 9.6336 0 0 1 9.3837 -9.8574 9.6336 9.6336 0 0 1 9.8771 9.363 9.6336 9.6336 0 0 1 -9.3422 9.8968 9.6336 9.6336 0 0 1 -9.9164 -9.3214" fill="#ffa500" filter="url(#a)" opacity=".2"/>
    <path transform="matrix(.58147 0 0 -.58147 701.7 1009.6)" d="m-286.12 601.74a9.6336 9.6336 0 0 1 9.3837 -9.8574 9.6336 9.6336 0 0 1 9.8771 9.363 9.6336 9.6336 0 0 1 -9.3422 9.8968 9.6336 9.6336 0 0 1 -9.9164 -9.3214" fill="#ffa500" filter="url(#a)" opacity=".2"/>
    <path transform="matrix(.58147 0 0 -.58147 670.87 1045.2)" d="m-286.12 601.74a9.6336 9.6336 0 0 1 9.3837 -9.8574 9.6336 9.6336 0 0 1 9.8771 9.363 9.6336 9.6336 0 0 1 -9.3422 9.8968 9.6336 9.6336 0 0 1 -9.9164 -9.3214" fill="#ffa500" filter="url(#a)" opacity=".2"/>
    <path transform="matrix(.46987 0 0 -.46987 679.51 913.52)" d="m-286.12 601.74a9.6336 9.6336 0 0 1 9.3837 -9.8574 9.6336 9.6336 0 0 1 9.8771 9.363 9.6336 9.6336 0 0 1 -9.3422 9.8968 9.6336 9.6336 0 0 1 -9.9164 -9.3214" fill="#ffa500" filter="url(#a)" opacity=".2"/>
    <path transform="matrix(.46987 0 0 -.46987 692.03 867.28)" d="m-286.12 601.74a9.6336 9.6336 0 0 1 9.3837 -9.8574 9.6336 9.6336 0 0 1 9.8771 9.363 9.6336 9.6336 0 0 1 -9.3422 9.8968 9.6336 9.6336 0 0 1 -9.9164 -9.3214" fill="#ffa500" filter="url(#a)" opacity=".2"/>
    <path transform="matrix(.46987 0 0 -.46987 665.06 801.77)" d="m-286.12 601.74a9.6336 9.6336 0 0 1 9.3837 -9.8574 9.6336 9.6336 0 0 1 9.8771 9.363 9.6336 9.6336 0 0 1 -9.3422 9.8968 9.6336 9.6336 0 0 1 -9.9164 -9.3214" fill="#ffa500" filter="url(#a)" opacity=".2"/>
    <path transform="matrix(.46987 0 0 -.46987 480.09 1033)" d="m-286.12 601.74a9.6336 9.6336 0 0 1 9.3837 -9.8574 9.6336 9.6336 0 0 1 9.8771 9.363 9.6336 9.6336 0 0 1 -9.3422 9.8968 9.6336 9.6336 0 0 1 -9.9164 -9.3214" fill="#ffa500" filter="url(#a)" opacity=".2"/>
    <path transform="matrix(.46987 0 0 -.46987 515.74 1007)" d="m-286.12 601.74a9.6336 9.6336 0 0 1 9.3837 -9.8574 9.6336 9.6336 0 0 1 9.8771 9.363 9.6336 9.6336 0 0 1 -9.3422 9.8968 9.6336 9.6336 0 0 1 -9.9164 -9.3214" fill="#ffa500" filter="url(#a)" opacity=".2"/>
    <path transform="matrix(.46987 0 0 -.46987 506.1 1035.9)" d="m-286.12 601.74a9.6336 9.6336 0 0 1 9.3837 -9.8574 9.6336 9.6336 0 0 1 9.8771 9.363 9.6336 9.6336 0 0 1 -9.3422 9.8968 9.6336 9.6336 0 0 1 -9.9164 -9.3214" fill="#ffa500" filter="url(#a)" opacity=".2"/>
    <path transform="matrix(.46987 0 0 -.46987 542.71 1050.3)" d="m-286.12 601.74a9.6336 9.6336 0 0 1 9.3837 -9.8574 9.6336 9.6336 0 0 1 9.8771 9.363 9.6336 9.6336 0 0 1 -9.3422 9.8968 9.6336 9.6336 0 0 1 -9.9164 -9.3214" fill="#ffa500" filter="url(#a)" opacity=".2"/>
    <path transform="matrix(.46987 0 0 -.46987 483.95 994.44)" d="m-286.12 601.74a9.6336 9.6336 0 0 1 9.3837 -9.8574 9.6336 9.6336 0 0 1 9.8771 9.363 9.6336 9.6336 0 0 1 -9.3422 9.8968 9.6336 9.6336 0 0 1 -9.9164 -9.3214" fill="#ffa500" filter="url(#a)" opacity=".2"/>
    <path transform="matrix(.46987 0 0 -.46987 426.15 983.84)" d="m-286.12 601.74a9.6336 9.6336 0 0 1 9.3837 -9.8574 9.6336 9.6336 0 0 1 9.8771 9.363 9.6336 9.6336 0 0 1 -9.3422 9.8968 9.6336 9.6336 0 0 1 -9.9164 -9.3214" fill="#ffa500" filter="url(#a)" opacity=".2"/>
    <path transform="matrix(.46987 0 0 -.46987 426.15 983.84)" d="m-286.12 601.74a9.6336 9.6336 0 0 1 9.3837 -9.8574 9.6336 9.6336 0 0 1 9.8771 9.363 9.6336 9.6336 0 0 1 -9.3422 9.8968 9.6336 9.6336 0 0 1 -9.9164 -9.3214" fill="#ffa500" filter="url(#a)" opacity=".2"/>
    <path transform="matrix(.46987 0 0 -.46987 318.25 820.07)" d="m-286.12 601.74a9.6336 9.6336 0 0 1 9.3837 -9.8574 9.6336 9.6336 0 0 1 9.8771 9.363 9.6336 9.6336 0 0 1 -9.3422 9.8968 9.6336 9.6336 0 0 1 -9.9164 -9.3214" fill="#ffa500" filter="url(#a)" opacity=".2"/>
    <path transform="matrix(.46987 0 0 -.46987 353.89 794.06)" d="m-286.12 601.74a9.6336 9.6336 0 0 1 9.3837 -9.8574 9.6336 9.6336 0 0 1 9.8771 9.363 9.6336 9.6336 0 0 1 -9.3422 9.8968 9.6336 9.6336 0 0 1 -9.9164 -9.3214" fill="#ffa500" filter="url(#a)" opacity=".2"/>
    <path transform="matrix(.46987 0 0 -.46987 344.26 822.96)" d="m-286.12 601.74a9.6336 9.6336 0 0 1 9.3837 -9.8574 9.6336 9.6336 0 0 1 9.8771 9.363 9.6336 9.6336 0 0 1 -9.3422 9.8968 9.6336 9.6336 0 0 1 -9.9164 -9.3214" fill="#ffa500" filter="url(#a)" opacity=".2"/>
    <path transform="matrix(.46987 0 0 -.46987 380.87 837.41)" d="m-286.12 601.74a9.6336 9.6336 0 0 1 9.3837 -9.8574 9.6336 9.6336 0 0 1 9.8771 9.363 9.6336 9.6336 0 0 1 -9.3422 9.8968 9.6336 9.6336 0 0 1 -9.9164 -9.3214" fill="#ffa500" filter="url(#a)" opacity=".2"/>
    <path transform="matrix(.46987 0 0 -.46987 322.1 781.54)" d="m-286.12 601.74a9.6336 9.6336 0 0 1 9.3837 -9.8574 9.6336 9.6336 0 0 1 9.8771 9.363 9.6336 9.6336 0 0 1 -9.3422 9.8968 9.6336 9.6336 0 0 1 -9.9164 -9.3214" fill="#ffa500" filter="url(#a)" opacity=".2"/>
    <path transform="matrix(0 .46987 .46987 0 75.261 804.15)" d="m-286.12 601.74a9.6336 9.6336 0 0 1 9.3837 -9.8574 9.6336 9.6336 0 0 1 9.8771 9.363 9.6336 9.6336 0 0 1 -9.3422 9.8968 9.6336 9.6336 0 0 1 -9.9164 -9.3214" fill="#ffa500" filter="url(#a)" opacity=".2"/>
    <path transform="matrix(0 .46987 .46987 0 110.91 778.14)" d="m-286.12 601.74a9.6336 9.6336 0 0 1 9.3837 -9.8574 9.6336 9.6336 0 0 1 9.8771 9.363 9.6336 9.6336 0 0 1 -9.3422 9.8968 9.6336 9.6336 0 0 1 -9.9164 -9.3214" fill="#ffa500" filter="url(#a)" opacity=".2"/>
    <path transform="matrix(0 .46987 .46987 0 101.27 807.04)" d="m-286.12 601.74a9.6336 9.6336 0 0 1 9.3837 -9.8574 9.6336 9.6336 0 0 1 9.8771 9.363 9.6336 9.6336 0 0 1 -9.3422 9.8968 9.6336 9.6336 0 0 1 -9.9164 -9.3214" fill="#ffa500" filter="url(#a)" opacity=".2"/>
    <path transform="matrix(0 .46987 .46987 0 137.88 821.49)" d="m-286.12 601.74a9.6336 9.6336 0 0 1 9.3837 -9.8574 9.6336 9.6336 0 0 1 9.8771 9.363 9.6336 9.6336 0 0 1 -9.3422 9.8968 9.6336 9.6336 0 0 1 -9.9164 -9.3214" fill="#ffa500" filter="url(#a)" opacity=".2"/>
    <path transform="matrix(0 .46987 .46987 0 79.115 765.62)" d="m-286.12 601.74a9.6336 9.6336 0 0 1 9.3837 -9.8574 9.6336 9.6336 0 0 1 9.8771 9.363 9.6336 9.6336 0 0 1 -9.3422 9.8968 9.6336 9.6336 0 0 1 -9.9164 -9.3214" fill="#ffa500" filter="url(#a)" opacity=".2"/>
    <path transform="matrix(0 -.46987 -.46987 0 579.83 637.78)" d="m-286.12 601.74a9.6336 9.6336 0 0 1 9.3837 -9.8574 9.6336 9.6336 0 0 1 9.8771 9.363 9.6336 9.6336 0 0 1 -9.3422 9.8968 9.6336 9.6336 0 0 1 -9.9164 -9.3214" fill="#ffa500" filter="url(#a)" opacity=".2"/>
    <path transform="matrix(0 -.46987 -.46987 0 615.47 611.77)" d="m-286.12 601.74a9.6336 9.6336 0 0 1 9.3837 -9.8574 9.6336 9.6336 0 0 1 9.8771 9.363 9.6336 9.6336 0 0 1 -9.3422 9.8968 9.6336 9.6336 0 0 1 -9.9164 -9.3214" fill="#ffa500" filter="url(#a)" opacity=".2"/>
    <path transform="matrix(0 -.46987 -.46987 0 605.84 640.67)" d="m-286.12 601.74a9.6336 9.6336 0 0 1 9.3837 -9.8574 9.6336 9.6336 0 0 1 9.8771 9.363 9.6336 9.6336 0 0 1 -9.3422 9.8968 9.6336 9.6336 0 0 1 -9.9164 -9.3214" fill="#ffa500" filter="url(#a)" opacity=".2"/>
    <path transform="matrix(0 -.46987 -.46987 0 642.44 655.12)" d="m-286.12 601.74a9.6336 9.6336 0 0 1 9.3837 -9.8574 9.6336 9.6336 0 0 1 9.8771 9.363 9.6336 9.6336 0 0 1 -9.3422 9.8968 9.6336 9.6336 0 0 1 -9.9164 -9.3214" fill="#ffa500" filter="url(#a)" opacity=".2"/>
    <path transform="matrix(0 -.46987 -.46987 0 583.68 599.24)" d="m-286.12 601.74a9.6336 9.6336 0 0 1 9.3837 -9.8574 9.6336 9.6336 0 0 1 9.8771 9.363 9.6336 9.6336 0 0 1 -9.3422 9.8968 9.6336 9.6336 0 0 1 -9.9164 -9.3214" fill="#ffa500" filter="url(#a)" opacity=".2"/>
    <path transform="matrix(0 -.46987 -.46987 0 587.53 679.2)" d="m-286.12 601.74a9.6336 9.6336 0 0 1 9.3837 -9.8574 9.6336 9.6336 0 0 1 9.8771 9.363 9.6336 9.6336 0 0 1 -9.3422 9.8968 9.6336 9.6336 0 0 1 -9.9164 -9.3214" fill="#ffa500" filter="url(#a)" opacity=".2"/>
    <path transform="matrix(0 -.46987 -.46987 0 744.56 656.08)" d="m-286.12 601.74a9.6336 9.6336 0 0 1 9.3837 -9.8574 9.6336 9.6336 0 0 1 9.8771 9.363 9.6336 9.6336 0 0 1 -9.3422 9.8968 9.6336 9.6336 0 0 1 -9.9164 -9.3214" fill="#ffa500" filter="url(#a)" opacity=".2"/>
    <path transform="matrix(0 -.46987 -.46987 0 768.65 543.37)" d="m-286.12 601.74a9.6336 9.6336 0 0 1 9.3837 -9.8574 9.6336 9.6336 0 0 1 9.8771 9.363 9.6336 9.6336 0 0 1 -9.3422 9.8968 9.6336 9.6336 0 0 1 -9.9164 -9.3214" fill="#ffa500" filter="url(#a)" opacity=".2"/>
    <path transform="matrix(0 -.46987 -.46987 0 739.74 392.12)" d="m-286.12 601.74a9.6336 9.6336 0 0 1 9.3837 -9.8574 9.6336 9.6336 0 0 1 9.8771 9.363 9.6336 9.6336 0 0 1 -9.3422 9.8968 9.6336 9.6336 0 0 1 -9.9164 -9.3214" fill="#ffa500" filter="url(#a)" opacity=".2"/>
    <path transform="translate(481.68 23.121)" d="m-205.2 802.85c2.9742 1.9423 12.925-2.4891 15.414 0 15.157 15.157 47.046-4.8168 66.472-4.8168 28.832 0 83.009 10.437 96.336-2.8901 3.2885-3.2885 6.9018-7.7861 10.597-9.6336 4.2699-2.135 17.787-46.241 14.45-46.241-1.5481 0-4.3482 4.8429-4.8168 5.7802-5.3376 10.675-27.323 20.405-36.608 25.047-22.756 11.378-60.031-8.8905-83.813-0.96336-19.847 6.6157-31.464 17.177-47.205 25.047-24.456 12.228-55.955-24.832-30.828 8.6703z" fill="#800000" opacity=".2"/>
    <path transform="translate(481.68 23.121)" d="m-19.267 461.82c0.46177-12.126-7.3678-18.928-13.487-25.047-3.6245-3.6245-51.146 22.07-43.351 29.864 5.1162 5.1162 21.021 7.1387 27.938 10.597 12.131 6.0656 17.246 19.702 29.864 26.011 5.0576 2.5288 17.274-19.4 13.487-26.974-3.9964-7.9928-10.468-6.4856-14.45-14.45z" fill="#800000" filter="url(#aw)" opacity=".2"/>
    <path transform="translate(481.68 23.121)" d="m-149.32 415.58c-4.8791 3.9398-6.6685 7.6319-9.6336 10.597-2.8897 2.8897 5.8722 10.781 6.7435 12.524 2.9956 5.9912-0.0613 14.328 2.8901 20.231 7.7196 15.439 2.1539 51.399 11.56 65.509 2.0827 3.124 11.162 30.262 14.45 26.974 5.2177-5.2177-3.4019-25.951 0-32.754 2.816-5.6321 8.5448-8.2938 10.597-14.45 7.0092-21.028 16.027-76.456 2.8901-89.593-7.4689-7.4689-34.051 2.0527-39.498 0.96336z" fill="#800000" filter="url(#ax)" opacity=".2"/>
    <path transform="translate(481.68 23.121)" d="m-18.304 513.84c1.8342-11.896-40.73-15.952-33.718-1.9267 12.741 25.482 5.189 36.17 10.597 57.802 8.3957 33.583 17.546 68.745 6.7435 101.15-1.5433 4.63 5.962 0.59979 2.8901 6.7436-5.6792 11.358-31.505 57.125-26.974 61.655 12.564 12.564 56.344-20.543 64.545-26.011 1.3542-0.90277 25.789-31.124 29.864-43.351 0.59445-1.7834-6.3027 2.8901-7.7069 2.8901-1.0903 0 5.7802-12.513 5.7802-13.487 0-2.0562-4.2567-2.8006-3.8535-4.8168 7.5444-37.722 27.456-72.013 41.425-106.93 3.2076-8.0191 2.0752-16.823 4.8168-25.047 2.6624-7.9871-1.3225-47.727-8.6703-45.278-17.8 5.9333-11.738 25.047-46.241 25.047-12.449 0-37.534 0.0748-43.351-11.56-0.38296-0.76592-11.593-7.7069-11.56-7.7069 0.14105 0-0.21205 8.2462 0 8.6703 3.2195 6.4391 7.4854 18.193 15.414 22.157z" fill="#800000" filter="url(#ay)" opacity=".2"/>
    <path transform="translate(481.68 23.121)" d="m-26.974 612.11c-29.255 30.732-45.633 72.912-82.849 91.52-57.425 28.713-94.474 3.5108-145.47-13.487-5.1826-1.7275-33.002-16.13-38.535-10.597-13.849 13.849 37.695 59.34 47.205 66.472 8.3821 6.2866 111.73 11.083 125.24 7.7069 21.622-5.4055 79.115-13.726 90.556-36.608 12.169-24.337 5.67-34.24 11.56-57.802 2.3796-9.5183-0.98368-40.482-7.7069-47.205z" fill="#800000" filter="url(#az)" opacity=".2"/>
    <path transform="translate(481.68 23.121)" d="m-131.64 467.62c-29.256 15.251-66.108-16.444-89.372-1.2069-66.279 43.41 90.549 118.89 154.48 77.019 29.485-19.311 43.213-80.697-14.453-73.965-16.065 1.8752-32.129 0.55143-50.651-1.847z" fill="#fff" filter="url(#ba)" opacity=".38"/>
    <path transform="matrix(.99801 .06299 -.065697 .99784 0 0)" d="m292.66 163.91a20.166 8.2822 0 0 1 19.643 -8.4746 20.166 8.2822 0 0 1 20.676 8.0495 20.166 8.2822 0 0 1 -19.556 8.5084 20.166 8.2822 0 0 1 -20.758 -8.0137" fill="#000400"/>
    <path transform="matrix(.99801 .06299 -.065697 .99784 0 0)" d="m296.21 163.88a16.613 6.8231 0 0 1 16.182 -6.9816 16.613 6.8231 0 0 1 17.033 6.6314 16.613 6.8231 0 0 1 -16.111 7.0095 16.613 6.8231 0 0 1 -17.101 -6.602" fill="#002000" filter="url(#bc)"/>
    <path d="m350.26 298.27-2.3807 7.1421v7.1421l0.89277 5.3566 2.6783 6.547 3.2735 5.3566s4.7614 3.5711 5.3566 2.3807c0.59518-1.1904 5.059-11.308 5.059-11.308l8.9277-18.153s6.8446-12.796 7.7373-14.284c0.89277-1.4879 8.0349-13.392 8.0349-13.392l8.0349-12.499s-18.451 19.046-19.343 20.534c-0.89277 1.4879-9.5228 10.118-11.011 11.606-1.488 1.488-8.6301 5.9518-10.118 5.9518-1.488 0-5.9518-1.488-5.9518-1.488z" fill="url(#bk)"/>
    <path d="m350.26 298.27-2.3807 7.1421v7.1421l0.89277 5.3566 2.6783 6.547 3.2735 5.3566s4.7614 3.5711 5.3566 2.3807c0.59518-1.1904 5.059-11.308 5.059-11.308l8.9277-18.153s6.8446-12.796 7.7373-14.284c0.89277-1.4879 8.0349-13.392 8.0349-13.392l8.0349-12.499s-18.451 19.046-19.343 20.534c-0.89277 1.4879-9.5228 10.118-11.011 11.606-1.488 1.488-8.6301 5.9518-10.118 5.9518-1.488 0-5.9518-1.488-5.9518-1.488z" fill="url(#bl)"/>
    <path d="m603.51 89.447c-9.7456-0.04949-112.72 8.4871-90.905 30.302 5.7333 5.7333 89.589-27.67 90.905-30.302z" fill="#fff" filter="url(#bd)" opacity=".3142"/>
   </g>
  </g>
 </g>
</svg>
