<?xml version='1.0' encoding='utf-8'?>
<svg xmlns:xlink="http://www.w3.org/1999/xlink" xmlns="http://www.w3.org/2000/svg" width="119.05916mm" height="132.05232mm" id="svg4506" version="1.1" viewBox="0 0 421.86316 467.90193"> <defs id="defs4508"> <linearGradient id="linearGradient4627"> <stop style="stop-color:#413e05;stop-opacity:1" offset="0" id="stop4629"/> <stop style="stop-color:#d0ca0f;stop-opacity:1" offset="1" id="stop4631"/> </linearGradient> <filter style="color-interpolation-filters:sRGB" id="filter4431" x="-0.015015166" width="1.0282581" y="-0.012465031" height="1.0266886"> <feGaussianBlur stdDeviation="1.165611" id="feGaussianBlur4433"/> </filter> <filter style="color-interpolation-filters:sRGB" id="filter4439" x="-0.015465946" width="1.0309108" y="-0.014839793" height="1.0296761"> <feGaussianBlur stdDeviation="1.2161457" id="feGaussianBlur4441"/> </filter> <filter style="color-interpolation-filters:sRGB" id="filter4505" x="-0.1523221" width="1.3046442" y="-0.33761817" height="1.6752363"> <feGaussianBlur stdDeviation="0.7687142" id="feGaussianBlur4507"/> </filter> <filter style="color-interpolation-filters:sRGB" id="filter4565" x="-0.23771384" width="1.4754277" y="-0.24194194" height="1.4838839"> <feGaussianBlur stdDeviation="0.76340731" id="feGaussianBlur4567"/> </filter> <filter style="color-interpolation-filters:sRGB" id="filter4621" x="-0.27887747" width="1.5577549" y="-0.20594274" height="1.4118855"> <feGaussianBlur stdDeviation="0.61080673" id="feGaussianBlur4623"/> </filter> <filter style="color-interpolation-filters:sRGB" id="filter4655" x="-0.091441058" width="1.1848546" y="-0.057473954" height="1.1139851"> <feGaussianBlur stdDeviation="0.67099313" id="feGaussianBlur4657"/> </filter> <filter style="color-interpolation-filters:sRGB" id="filter4693" x="-0.14463085" width="1.2918741" y="-0.12077104" height="1.2327092"> <feGaussianBlur stdDeviation="0.5275924" id="feGaussianBlur4695"/> </filter> <linearGradient xlink:href="#linearGradient4627" id="linearGradient125260" gradientUnits="userSpaceOnUse" x1="-727.48993" y1="144.10486" x2="-699.565" y2="228.4512"/> </defs> <metadata id="metadata4511"> </metadata> <g id="layer1" transform="translate(893.75075,-185.65054)"> <g id="g125258" transform="matrix(1.4550182,0,0,1.4550182,-319.35658,-92.205429)"> <g id="g125256" transform="rotate(-8.8297576,-1291.8726,-2560.1097)"> <path transform="matrix(1.1624594,0.0331207,-0.15032586,1.1601121,46.80222,180.66935)" id="path125232" d="m -726.19644,174.32743 -8.90595,-30.95198 9.09157,-5.08038 12.69208,31.18519 z" style="fill:url(#linearGradient125260);fill-opacity:1;fill-rule:evenodd;stroke:#4c520a;stroke-width:0.646457px;stroke-linecap:butt;stroke-linejoin:miter;stroke-opacity:1;filter:url(#filter4655)"/> <path transform="rotate(-7.766745,-609.40856,641.1212)" id="path125234" d="m -583.56247,584.13172 -4.90783,13.18981 4.6011,1.5337 7.05501,-9.81567 z" style="fill:#6a6508;fill-opacity:1;fill-rule:evenodd;stroke:#5c5a0e;stroke-width:0.646457px;stroke-linecap:butt;stroke-linejoin:miter;stroke-opacity:1;filter:url(#filter4693)"/> <path transform="matrix(1.0508451,-0.06200629,-0.04256314,1.039492,-53.363839,132.58068)" id="path125236" d="m -496.10692,414.66432 c -4.99655,13.86568 -119.89306,3.15259 -182.42366,-63.85165 -62.5306,-67.00423 -60.2823,-169.91303 -47.27311,-176.84003 5.1256,-2.72923 15.1121,-6.60689 17.779,-2.70438 12.46346,18.23797 31.86157,78.83122 83.85144,134.5406 51.66412,55.36033 113.7297,73.32277 129.15167,91.3085 3.78416,4.41323 1.42681,10.57562 -1.08534,17.54696 z" style="opacity:1;fill:#efe54a;fill-opacity:1;fill-rule:evenodd;stroke:#60670d;stroke-width:1.59093;stroke-miterlimit:4;stroke-dasharray:none;stroke-opacity:1;filter:url(#filter4439)"/> <path transform="matrix(1.089917,-0.06431177,-0.04422722,1.0801325,-27.298858,113.63937)" id="path125238" d="m -722.97646,183.36337 c 21.69122,146.15735 96.92589,206.47699 218.24975,230.1352" style="fill:none;fill-rule:evenodd;stroke:#5c630d;stroke-width:0.969685;stroke-linecap:butt;stroke-linejoin:miter;stroke-miterlimit:4;stroke-dasharray:none;stroke-opacity:1;filter:url(#filter4431)"/> <ellipse transform="matrix(0.77286141,0.62627527,-0.04256314,1.039492,-56.431236,132.27394)" ry="4.9078355" rx="3.6242909" cy="809.40149" cx="-924.78528" id="ellipse125240" style="opacity:1;fill:#747d0f;fill-opacity:1;fill-rule:evenodd;stroke:#5c630d;stroke-width:1.11106;stroke-miterlimit:4;stroke-dasharray:none;stroke-opacity:1;filter:url(#filter4621)"/> <ellipse transform="matrix(0.81325669,0.57654334,-0.04256314,1.039492,-56.431236,132.27394)" ry="4.9078355" rx="4.9951286" cy="829.1911" cx="-873.94305" id="ellipse125242" style="opacity:1;fill:#6e6a09;fill-opacity:1;fill-rule:evenodd;stroke:#5c630d;stroke-width:1.08529;stroke-miterlimit:4;stroke-dasharray:none;stroke-opacity:1;filter:url(#filter4565)"/> <ellipse transform="matrix(0.91692176,0.41679153,-0.32259652,1.0180918,-70.906176,124.53981)" ry="3.4575546" rx="7.6635842" cy="602.12756" cx="-449.79144" id="ellipse125244" style="opacity:1;fill:#5c5608;fill-opacity:1;fill-rule:evenodd;stroke:#5c630d;stroke-width:0.979505;stroke-miterlimit:4;stroke-dasharray:none;stroke-opacity:1;filter:url(#filter4505)"/> <ellipse style="opacity:1;fill:#5c5608;fill-opacity:1;fill-rule:evenodd;stroke:#5c630d;stroke-width:0.979505;stroke-miterlimit:4;stroke-dasharray:none;stroke-opacity:1;filter:url(#filter4505)" id="ellipse125246" cx="-449.79144" cy="602.12756" rx="7.6635842" ry="3.4575546" transform="matrix(0.44387509,0.20176572,-0.15616661,0.49285076,-429.61736,316.422)"/> <ellipse transform="matrix(0.41216048,0.46476935,-0.43706011,0.49278707,-351.44552,356.28879)" ry="3.4575546" rx="7.6635842" cy="602.12756" cx="-449.79144" id="ellipse125248" style="opacity:1;fill:#5c5608;fill-opacity:1;fill-rule:evenodd;stroke:#5c630d;stroke-width:0.979505;stroke-miterlimit:4;stroke-dasharray:none;stroke-opacity:1;filter:url(#filter4505)"/> <ellipse style="opacity:1;fill:#5c5608;fill-opacity:1;fill-rule:evenodd;stroke:#5c630d;stroke-width:0.979505;stroke-miterlimit:4;stroke-dasharray:none;stroke-opacity:1;filter:url(#filter4505)" id="ellipse125250" cx="-449.79144" cy="602.12756" rx="7.6635842" ry="3.4575546" transform="matrix(0.41216048,0.22680839,-0.43706011,0.74512384,-306.93369,134.40548)"/> <ellipse transform="matrix(-0.46976594,0.08434731,0.07001594,0.85219855,-1010.4748,66.89628)" ry="3.4575546" rx="7.6635842" cy="602.12756" cx="-449.79144" id="ellipse125252" style="opacity:1;fill:#5c5608;fill-opacity:1;fill-rule:evenodd;stroke:#5c630d;stroke-width:0.979505;stroke-miterlimit:4;stroke-dasharray:none;stroke-opacity:1;filter:url(#filter4505)"/> <ellipse style="opacity:1;fill:#5c5608;fill-opacity:1;fill-rule:evenodd;stroke:#5c630d;stroke-width:0.979505;stroke-miterlimit:4;stroke-dasharray:none;stroke-opacity:1;filter:url(#filter4505)" id="ellipse125254" cx="-449.79144" cy="602.12756" rx="7.6635842" ry="3.4575546" transform="matrix(0.68990353,0.21340556,-0.06685294,0.69983683,-314.6969,260.91056)"/> </g> </g> </g> </svg>