<?xml version="1.0" encoding="UTF-8"?>
<svg viewBox="0 0 512 512" xmlns="http://www.w3.org/2000/svg">
 <defs>
  <clipPath id="a">
   <path d="m149.81 677.1 17.337 6.2284c22.702 8.1558 33.681 36.26 28.221 64.144l-27.233 139.07c-6.3326 32.34-35.994 49.704-62.324 40.245l-20.108-7.2236c-26.33-9.4591-42.753-43.379-32.73-74.393l43.1-133.37c8.6414-26.741 31.035-42.856 53.737-34.7z"/>
  </clipPath>
  <clipPath id="c">
   <path d="m149.81 629.47 17.337 6.2284c22.702 8.1558 33.681 36.26 28.221 64.144l-27.233 139.07c-6.3326 32.34-35.994 49.704-62.324 40.245l-20.108-7.2236c-26.33-9.4591-42.753-43.379-32.73-74.393l43.1-133.37c8.6414-26.741 31.035-42.856 53.737-34.7z"/>
  </clipPath>
  <filter id="j">
   <feGaussianBlur stdDeviation="3.97342"/>
  </filter>
  <filter id="h">
   <feGaussianBlur stdDeviation="2.50711"/>
  </filter>
  <filter id="b">
   <feGaussianBlur stdDeviation=".92632"/>
  </filter>
  <filter id="i" x="-.12098" y="-.07957" width="1.242" height="1.1591">
   <feGaussianBlur stdDeviation="12.49169"/>
  </filter>
  <filter id="g" x="-.20581" y="-.44444" width="1.4116" height="1.8889">
   <feGaussianBlur stdDeviation="9.12679"/>
  </filter>
  <linearGradient id="f" x1="283.81" x2="471.7" y1="259.41" y2="463.46" gradientUnits="userSpaceOnUse">
   <stop stop-color="#eeeeec" stop-opacity=".78431" offset="0"/>
   <stop stop-color="#eeeeec" stop-opacity=".03922" offset="1"/>
  </linearGradient>
  <radialGradient id="e" cx="385.98" cy="431.62" r="175.76" gradientTransform="matrix(.93315 .31985 -.4929 1.4467 240.2 -310.44)" gradientUnits="userSpaceOnUse">
   <stop stop-color="#fff755" offset="0"/>
   <stop stop-color="#ffce08" offset="1"/>
  </radialGradient>
  <radialGradient id="d" cx="306.68" cy="751.79" r="73.375" gradientTransform="matrix(.85268 .22226 -.32896 1.262 187.16 -32.141)" gradientUnits="userSpaceOnUse">
   <stop stop-color="#e7d7a9" offset="0"/>
   <stop stop-color="#d0b358" offset="1"/>
  </radialGradient>
 </defs>
 <g transform="translate(0 -540.36)">
  <path transform="matrix(.71114 0 0 .71114 -20.615 443.32)" d="m351.82 595.1 17.337 6.2284c22.702 8.1558 33.681 36.26 28.221 64.144l-27.233 139.07c-6.3326 32.34-35.994 49.704-62.324 40.245l-20.108-7.2236c-26.33-9.4591-42.753-43.379-32.73-74.393l43.1-133.37c8.6414-26.741 31.035-42.856 53.737-34.7z" fill="#a17000" filter="url(#h)"/>
  <path d="m228.15 865.1 12.329 4.4292c16.145 5.8 23.952 25.786 20.069 45.615l-19.366 98.901c-4.5034 22.998-25.597 35.346-44.321 28.62l-14.299-5.137c-18.724-6.7268-30.403-30.849-23.276-52.904l30.65-94.847c6.1452-19.017 22.07-30.477 38.215-24.677z" fill="url(#d)"/>
  <g transform="matrix(.71114 0 0 .71114 120.2 417.46)" fill="#d9bf76" filter="url(#b)">
   <path transform="translate(2 -47.638)" d="m140.68 655.62c-10.001 18.552-18.592 37.823-27.361 56.976-16.193 35.69-32.165 71.49-47.076 107.74-3.2104 7.8042-6.3263 15.647-9.4895 23.47-13.659 34.038-26.32 68.467-38.155 103.18-2.995 9.105-6.0577 18.195-8.5434 27.456l-0.48702 1.6872-2.5255 1.1972 0.50569-1.6899c2.5682-9.3148 5.7298-18.449 8.813-27.603 12.114-34.744 24.916-69.251 38.611-103.4 3.1649-7.8251 6.2851-15.668 9.4948-23.475 14.879-36.191 30.775-71.951 46.829-107.63 8.6385-19.051 17.109-38.206 26.824-56.741l2.56-1.1582z" clip-path="url(#a)"/>
   <path transform="translate(2 -47.638)" d="m152.05 662.34c1.4363 18.376-1.7176 36.765-4.3307 54.89-3.8032 23.659-8.9624 47.074-14.631 70.348-5.6123 23.044-9.5393 37.877-16.312 60.861-3.3162 11.254-6.8794 22.433-10.319 33.649-11.144 35.807-23.91 71.08-37.306 106.1-8.768 22.92-15.689 40.969-25.869 63.084-3.6852 8.0061-7.8154 15.8-11.723 23.7-7.5264 13.911-15.547 27.643-25.433 40.036-2.1048 2.6381-5.9828 7.0682-8.8528 9.4221-0.75084 0.6159-1.6495 1.0253-2.4742 1.538l-2.568 0.9919c0.85623-0.5047 1.7903-0.8959 2.5687-1.5139 2.9083-2.3093 6.9604-6.8684 9.0684-9.4659 10.08-12.421 18.269-26.222 25.943-40.216 3.9685-7.9241 8.1677-15.737 11.906-23.772 10.366-22.284 17.183-40.012 26.053-63.16 13.408-34.989 26.143-70.249 37.229-106.05 3.4153-11.203 6.9563-22.369 10.246-33.61 6.6919-22.867 10.62-37.833 16.137-60.768 5.5839-23.215 10.644-46.575 14.319-70.176 1.9441-14.038 2.6001-17.229 3.7212-30.577 0.6702-7.9791 1.0306-16.022 0.12302-23.998l2.5058-1.3084z" clip-path="url(#a)"/>
   <path transform="translate(2 -47.638)" d="m178.15 628.44c-2.4676 9.9236-5.3086 19.751-8.159 29.571-8.5597 28.909-16.74 57.929-24.974 86.932-16.965 57.738-33.624 115.56-50.082 173.45-12.905 45.55-24.905 91.349-37.536 136.98-2.6278 9.2493-5.2918 18.488-8.0005 27.714l-2.3635 1.1189c2.8262-9.2632 5.5873-18.546 8.289-27.846 12.936-45.664 25.068-91.551 38.025-137.21 16.496-57.792 33.113-115.55 49.764-173.3 8.1118-28.931 16.151-57.884 24.551-86.733 2.7969-9.7761 5.5946-19.559 7.9515-29.451l2.5336-1.2243z" clip-path="url(#a)"/>
   <path transform="translate(2 -47.638)" d="m164.43 595.91c-3.9739 7.7966-7.5713 15.772-11.047 23.8-11.428 28.119-20.699 57.054-30.32 85.824-17.823 54.267-34.029 109.04-50.647 163.68-12.503 42.245-25.127 84.464-36.274 127.09-4.3232 16.532-8.0245 31.877-12.075 48.403-4.8575 20.157-9.4689 40.376-13.886 60.634l-2.3485 1.1325c4.6219-20.334 9.3884-40.636 14.386-60.881 3.9569-15.799 8.1798-32.853 12.326-48.527 11.275-42.621 23.863-84.873 36.37-127.14 16.437-54.595 32.637-109.27 50.249-163.5 9.4944-28.696 18.631-57.556 29.865-85.634 3.4098-7.9995 6.9646-15.933 10.821-23.728l2.5798-1.1537z" clip-path="url(#a)"/>
   <path transform="translate(2 -47.638)" d="m184.03 597.54c-1.4741 12.089-4.2101 23.967-6.9069 35.827-6.4416 26.419-11.768 53.093-17.155 79.741-8.7916 43.49-4.24 20.662-13.581 68.294-17.671 79.111-33.98 158.51-50.514 237.87-5.0858 24.2-2.7355 12.983-7.0565 33.649l-2.1097 1.0194c4.5716-20.781 2.0928-9.5039 7.4342-33.832 17.16-79.305 33.767-158.73 50.881-238.04 7.596-39.718 5.9067-31.24 13.196-68.108 4.3772-22.14 8.7548-44.293 13.614-66.334 0.97127-4.4053 2.0417-8.7881 3.0626-13.182 2.6163-11.797 5.2824-23.614 6.6109-35.641l2.5239-1.2597z" clip-path="url(#a)"/>
   <path transform="translate(2 -47.638)" d="m167.01 654.06c-4.0377 10.733-8.9068 21.133-13.632 31.574-8.2177 18.156-5.0951 11.316-14.089 30.564-22.638 47.321-45.294 94.631-67.232 142.28-19.406 42.159-35.71 85.659-50.975 129.46l-3.7238 11.083-2.2111 1.0366 3.845-11.143c9.5752-26.909 19.494-53.678 30.157-80.179 3.4768-8.6407 6.9469-17.286 10.612-25.848 3.3935-7.9283 7.0407-15.746 10.561-23.618 21.922-47.57 44.592-94.785 66.946-142.15 8.5404-18.417 6.1339-13.054 13.928-30.487 4.6368-10.37 9.4236-20.705 13.285-31.397l2.5297-1.175z" clip-path="url(#a)"/>
   <path transform="translate(2 -47.638)" d="m173.25 670.87c-1.3044 7.5176-2.2626 15.099-3.7388 22.587-1.9539 9.911-4.2526 19.012-6.614 28.883-13.394 51.669-27.85 103.06-41.067 154.77-10.69 41.827-12.872 51.881-22.566 92.948l-1.1182 0.53729c9.4591-39.623 12.443-52.744 22.689-93.01 13.099-51.481 27.289-102.68 40.007-154.26 2.3183-9.9101 4.5345-18.83 6.4157-28.769 1.4086-7.4418 2.3021-14.975 3.4436-22.459l2.5484-1.229z" clip-path="url(#a)"/>
   <path transform="translate(2 -47.638)" d="m160.14 683.38c-8.2024 19.216-16.763 38.278-25.489 57.262-17.135 36.424-34.925 72.538-51.977 109-5.6174 12.012-11.295 23.998-16.658 36.125-6.2514 14.136-12.121 28.439-18.181 42.658l-17.374 45.059-1.0435 0.48427 17.308-45.033c5.9896-14.188 11.783-28.461 17.969-42.565 5.3099-12.108 10.937-24.074 16.514-36.061 16.919-36.363 34.589-72.375 51.459-108.76 8.5808-18.872 17.006-37.82 24.92-56.983l2.5535-1.1851z" clip-path="url(#a)"/>
   <path transform="translate(2 -47.638)" d="m173.55 696.24c1.8553 28.902 0.82522 57.883 0.10527 86.804-2.0284 69.189-6.272 138.29-10.727 207.35l-1.6945 24.629-1.7728 0.8873 1.8706-24.716c4.8189-69.025 8.9509-138.11 10.627-207.29 0.55277-28.779 1.373-57.643-0.88275-86.375l2.4747-1.2893z" clip-path="url(#a)"/>
   <path transform="translate(2 -47.638)" d="m168.39 706.96c-1.285 18.805-3.7625 37.518-6.8892 56.101-1.168 6.942-2.4721 13.861-3.7081 20.791-8.7058 43.567-18.171 86.979-26.925 130.54-6.5419 32.553-7.08 36.044-13 67.834l-1.519 0.73883c6.053-32.041 6.5342-35.069 13.124-67.897 8.7215-43.446 18.076-86.765 26.422-130.29 1.2057-6.9137 2.4835-13.815 3.6171-20.741 3.0249-18.481 5.3993-37.102 6.3915-55.809l2.4865-1.267z" clip-path="url(#a)"/>
   <path transform="translate(2 -47.638)" d="m154.88 645.71c-13.275 27.732-25.911 55.77-38.655 83.75-39 84.342-78.297 168.55-117.45 252.82l-1.0899 0.49679c39.221-84.045 78.462-168.09 116.82-252.53 12.538-27.825 25.016-55.681 37.816-83.386l2.5594-1.1498z" clip-path="url(#a)"/>
   <path transform="translate(2 -47.638)" d="m137.45 724.45c-4.9924 24.298-11.136 48.336-17.166 72.393-8.3172 32.701-16.754 65.384-26.24 97.771-4.4336 15.136-8.867 30.278-13.759 45.273-12.636 38.734-16.726 47.629-31.191 84.424l-14.673 31.955-1.4652 0.6684 14.907-32.054c14.567-36.723 18.809-45.793 31.349-84.486 4.8455-14.951 9.1873-30.062 13.538-45.164 9.306-32.305 17.54-64.915 25.722-97.518 5.8585-23.928 11.9-47.832 16.418-72.059l2.5602-1.2024z" clip-path="url(#a)"/>
   <path transform="translate(2 -47.638)" d="m151.66 638.04c-3.3119 8.547-5.8236 17.395-8.5193 26.151-9.5215 31.981-18.841 64.021-27.965 96.118-2.7892 10.244-5.5692 20.491-8.3677 30.733-5.9342 21.718-17.612 64.151-23.227 84.984-11.423 42.38-22.46 84.859-33.384 127.37l-7.4652 29.552-1.6024 0.7664 7.7163-29.672c21.233-81.038 42.872-161.97 64.55-242.89 8.903-32.024 18.125-63.956 27.423-95.867 2.628-8.7255 5.1008-17.525 8.2709-26.072l2.5707-1.1772z" clip-path="url(#a)"/>
   <path transform="translate(2 -47.638)" d="m190.38 696.04c-2.5622 13.481-4.0748 27.151-5.9369 40.742-3.248 23.129-7.332 46.131-11.33 69.138-1.8546 10.674-3.589 21.369-5.5928 32.016-3.0144 16.016-15.55 77.981-18.524 92.745l-9.5865 47.535-1.0279 0.49821 9.6055-47.544c6.7498-33.893 11.848-58.728 17.996-92.484 1.9371-10.636 3.6789-21.306 5.4882-31.964 3.8902-22.916 7.7366-45.845 10.83-68.885 1.7545-13.528 3.173-27.123 5.539-40.561l2.5383-1.2363z" clip-path="url(#a)"/>
   <path transform="translate(2 -47.638)" d="m157.68 590.47c-0.90602 16.75-2.4389 33.467-4.0628 50.162-0.67793 6.3109-1.3011 12.628-2.0338 18.933-3.1081 26.744-7.0301 53.352-11.858 79.843-6.4548 35.417-11.236 57.107-18.8 93.481-15.215 71.577-7.753 36.065-22.394 106.53l-0.86753 0.41982c14.71-70.477 7.2496-34.967 22.386-106.53 3.5047-17.379 7.1234-34.735 10.514-52.137 8.9969-46.175 16.756-92.637 20.989-139.52 1.5107-16.608 2.9457-33.244 3.6162-49.91l2.5107-1.2793z" clip-path="url(#a)"/>
   <path transform="translate(2 -47.638)" d="m164.03 690.48c-0.16384 1.1176-0.34883 2.2322-0.49152 3.3527-1.4062 11.041-2.4225 22.167-3.5347 33.236-1.2669 12.608-3.7718 38.605-4.9151 50.41-3.5344 34.551-3.6389 37.541-8.7294 76.481-2.3795 18.202-4.6724 36.421-7.5293 54.554-2.8116 17.846-6.0592 35.624-9.473 53.365-2.9846 15.511-6.4798 30.919-9.7196 46.378l-1.0615 0.5132c8.7085-40.738 12.868-57.586 19.435-99.852 2.8091-18.081 5.0026-36.253 7.2466-54.413 3.6621-29.636 5.3397-47.895 8.144-76.187 2.4712-26.88 2.3105-25.018 4.5936-50.25 0.99562-11.003 1.8575-22.042 3.0866-33.025 0.12344-1.1031 0.28525-2.2015 0.42788-3.3023l2.5204-1.2599z" clip-path="url(#a)"/>
   <path transform="translate(2 -47.638)" d="m148.64 645.2c-8.4921 11.483-15.527 23.922-22.738 36.223-12.88 22.356-24.97 45.209-34.605 69.177-10.205 25.386-13.566 37.013-22.358 63.556-12.81 41.543-6.8092 21.464-18.075 60.216l-1.6502 0.78241c11.463-38.826 5.3887-18.714 18.281-60.319 8.4879-25.89 12.189-38.583 22.014-63.414 3.0751-7.7718 6.4018-15.446 9.8978-23.038 2.7208-5.9085 5.7669-11.662 8.7447-17.446 6.836-13.276 8.501-15.99 15.55-28.536 7.1086-12.231 14.028-24.605 22.352-36.07l2.5876-1.1322z" clip-path="url(#a)"/>
   <path transform="translate(2 -47.638)" d="m164.23 630.2c-1.7762 6.348-2.5213 8.9471-4.3957 16.038-7.8221 29.591-15.521 59.213-23.395 88.79-3.2309 12.269-6.3849 24.559-9.6926 36.808-2.8637 10.605-26.357 95.731-28.851 104.78-10.508 38.124-17.218 62.507-27.565 100.09l-1.0207 0.48576c22.409-80.326 44.86-160.65 65.593-241.43 8.9923-34.776 17.921-69.568 26.821-104.37l2.5055-1.1947z" clip-path="url(#a)"/>
   <path transform="translate(2 -47.638)" d="m168.15 700.67c-3.7806 18.918-8.1782 37.7-12.549 56.489-17.337 71.436-32.67 143.34-48.016 215.22-11.399 51.985-5.8939 27.144-16.488 74.53l-1.4672 0.7069c10.898-47.502 5.2716-22.608 16.831-74.693 15.165-71.714 30.51-143.4 47.126-214.79 4.2405-18.695 8.5332-37.381 12.034-56.232l2.5292-1.2264z" clip-path="url(#a)"/>
   <path transform="translate(2 -47.638)" d="m183.31 685.02c-1.1521 17.343-3.3561 34.595-5.4835 51.839-5.4544 42.223-12.86 84.184-21.571 125.85-2.3313 11.152-4.8636 22.261-7.2954 33.391-11.967 47.512-5.6924 23.989-18.8 70.576l-1.4282 0.67897c13.14-46.572 6.8839-23.062 18.744-70.538 2.4302-11.128 4.9768-22.232 7.2907-33.385 8.6212-41.555 15.678-83.433 20.971-125.54 2.03-17.165 4.1667-34.342 5.0624-51.613l2.5105-1.2595z" clip-path="url(#a)"/>
   <path transform="translate(2)" d="m196.8 638.42c-0.34879 3.0616-0.84091 6.105-1.2051 9.1646-0.56227 4.7239-1.7596 16.629-2.2009 20.542-1.5743 13.961-3.253 27.91-4.859 41.868-1.0692 8.8907-2.0972 17.786-3.2078 26.672-1.2172 9.7384-2.2884 19.499-3.7754 29.199-4.4531 29.05-10.642 61.902-16.95 90.388-8.8228 39.842-14.001 57.661-24.338 96.384l-1.0682 0.5094c10.734-39.771 15.434-55.372 24.409-96.41 6.8346-31.252 11.699-58.633 16.318-90.067 1.4243-9.6927 2.5098-19.432 3.6942-29.157 1.0799-8.8667 2.066-17.745 3.0989-26.617 1.0513-9.6456 3.4162-31.171 4.4986-41.686 0.70132-6.8134 1.2663-13.641 2.0017-20.451 0.32774-3.0348 0.78356-6.055 1.0732-9.0943l2.5109-1.2446z" clip-path="url(#c)"/>
   <path transform="translate(2 -47.638)" d="m147.53 695.24c-2.3628 10.498-4.7582 20.999-7.5534 31.393-1.3954 5.1887-2.89 10.35-4.3349 15.525-2.2731 7.7074-4.4958 15.43-6.8192 23.122-9.1569 30.317-12.892 41.707-23.013 73.485-14.802 46.474-29.682 92.92-44.338 139.44l-12.79 40.845-1.2132 0.5722 12.968-40.929c23.882-75.411 5.4331-17.176 30.119-95.039 14.803-46.691 29.856-93.323 43.019-140.51 4.1751-15.462 8.2912-30.952 11.412-46.669l2.5431-1.2332z" clip-path="url(#a)"/>
   <path transform="translate(2 -47.638)" d="m131.73 673.82c-2.9326 9.0236-5.9354 18.024-8.8805 27.043-9.3634 29.293-19.775 58.241-30.103 87.204-15.155 42.499-10.306 28.965-27.042 74.141-18.914 50.536-38.136 100.96-57.155 151.45l-1.4975 0.6958c19.288-50.468 38.557-100.94 57.42-151.57 19.541-53.31 38.987-106.69 56.093-160.84 2.8552-8.975 5.7751-17.929 8.6107-26.91l2.5539-1.2089z" clip-path="url(#a)"/>
   <path transform="translate(2 -47.638)" d="m180.06 650.44c-3.2906 6.559-6.3273 13.244-9.3868 19.914-8.0011 17.394-16.19 34.7-24.463 51.967-21.96 43.794-42.028 88.503-62.051 133.21-15.346 33.94-30.562 67.937-45.529 102.05l-2.3129 1.0591c15.37-34.135 30.748-68.266 46.21-102.36 12.244-27.307 24.57-54.571 37.09-81.753 3.4499-7.4903 6.8575-15 10.376-22.459 4.0128-8.5062 9.7227-19.997 14.047-28.754 8.2155-17.207 16.282-34.485 24.188-51.837 3.037-6.6463 6.0571-13.303 9.2656-19.869l2.5662-1.161z" clip-path="url(#a)"/>
   <path transform="translate(2 -47.638)" d="m144.11 599.76c-0.20512 8.4952 0.38839 16.976 1.0383 25.44 1.5759 19.395 3.2946 38.776 4.7078 58.183 0.27763 4.1281 0.62587 8.252 0.8329 12.384 0.24363 4.8625 0.38127 9.73 0.51891 14.597 0.4496 15.898 0.56657 31.816 0.0271 47.714-0.22313 6.5749-0.6077 13.143-0.91155 19.715-0.58946 7.5456-1.1204 15.096-1.7684 22.637-1.5304 17.81-2.5497 27.952-4.9551 45.744-1.6799 12.426-4.2591 28.62-6.4884 41.12-1.031 5.7816-2.1878 11.54-3.2817 17.31-4.5845 22.713-9.505 45.356-14.358 68.013-1.3931 6.8595-2.9702 13.688-3.9305 20.626-0.54595 4.2402-0.68289 8.5158-0.73919 12.786-0.0205 2.0597 4e-3 4.1193 0.0128 6.1789 0.0222 1.2787 0.17901 0.4932-2.2684 0.7933l2.5466-1.2149c-2.9334 2.3341-2.8016 3.418-2.7962 1.7062-0.0114-2.0654-0.0205-4.1309 9e-3 -6.1962 0.0749-4.2858 0.20925-8.578 0.75971-12.834 0.95913-6.9711 2.5756-13.823 4.0372-20.701 5.0452-22.697 10.121-45.387 14.718-68.18 3.754-19.463 7.291-38.852 9.9576-58.506 2.2328-16.457 3.5499-29.214 4.9381-45.726 0.63242-7.522 1.1184-15.056 1.6776-22.584 0.2726-6.5538 0.6171-13.105 0.81779-19.661 0.7611-24.864 0.30108-49.791-1.5188-74.598-1.4521-19.38-3.2176-38.732-4.8763-58.094-0.6951-8.4406-1.3099-16.896-1.2177-25.372l2.5107-1.2793z" clip-path="url(#a)"/>
   <path transform="translate(2 -47.638)" d="m179.11 603.33c-0.44565 11.092-1.9834 22.098-3.5539 33.074-0.82837 4.5596-1.5586 9.138-2.4851 13.679-1.3914 6.8184-2.928 13.607-4.4676 20.393-8.4695 37.333-18.419 74.303-28.043 111.35-14.547 55.531-28.61 111.19-41.539 167.12-4.0276 18.253-8.262 36.482-11.431 54.911l-2.4458 1.1924c3.3992-18.518 7.7783-36.842 11.976-55.189 13.229-55.952 27.391-111.68 41.922-167.31 7.5195-29.268 15.295-58.48 22.298-87.877 3.2104-13.476 6.9212-29.823 9.6029-43.553 0.88285-4.5201 1.5794-9.0746 2.3692-13.612 1.4998-10.917 2.9461-21.872 3.2868-32.899l2.5107-1.2793z" clip-path="url(#a)"/>
   <path transform="translate(2 -47.638)" d="m181.02 611.6c-3.1618 9.1407-5.6819 18.482-8.5342 27.721-1.6398 5.311-3.3282 10.607-4.9923 15.91-3.135 8.8052-16.875 47.438-19.38 54.28-6.1374 16.763-12.401 33.479-18.628 50.209-6.8662 18.447-13.718 36.899-20.651 55.321-13.024 34.604-26.239 69.025-39.446 103.56l-15.693 40.976-1.1808 0.54785 15.977-41.107c14.302-37.121 25.572-66.146 39.643-103.65 19.81-52.797 38.976-105.84 57.307-159.17 4.3833-14.455 8.5261-28.979 13.019-43.398l2.5602-1.2024z" clip-path="url(#a)"/>
   <path transform="translate(2 -47.638)" d="m155.39 597.3c-2.6344 18.078-4.112 36.309-5.7862 54.495-3.4055 36.729-7.6407 73.38-12.889 109.89-1.6641 11.577-3.3052 23.16-5.2612 34.691-2.0825 12.277-4.5684 24.482-6.8527 36.723-8.6037 40.987-19.417 81.459-30.685 121.78l-1.8276 0.86852c2.1752-7.5768 4.4164-15.135 6.5255-22.73 9.1198-32.843 17.589-65.882 24.605-99.244 2.2612-12.228 4.7146-24.422 6.7836-36.683 1.9457-11.531 3.616-23.108 5.259-34.687 5.1662-36.408 9.0709-72.978 12.324-109.6 1.5595-18.106 2.9662-36.24 5.2562-54.272l2.5484-1.229z" clip-path="url(#a)"/>
   <path transform="translate(2 -47.638)" d="m151.18 636.57c-0.63626 3.805-1.2127 7.6194-1.8758 11.42-0.86513 3.9552-1.2078 7.9939-1.8671 11.982-0.3593 2.1737-0.96369 5.1845-1.3823 7.33-2.1471 10.312-4.5826 20.548-7.4414 30.684-5.8418 19.108-13.454 37.624-21.268 55.993-3.131 7.3597-6.2456 14.728-9.5408 22.015-3.6938 8.169-7.616 16.233-11.424 24.349-4.0325 8.5568-8.185 17.058-12.098 25.671-11.088 24.408-21.364 49.185-30.494 74.392-2.3217 6.4097-4.5909 12.84-6.6969 19.324-1.8253 5.6198-3.3962 11.319-5.0943 16.978-5.2036 17.861-8.3519 36.292-9.1332 54.875l-0.02769 3.1004-2.4494 1.2435 0.06313-3.1283c0.98288-18.676 4.2081-37.204 9.5322-55.138 1.726-5.676 3.3221-11.393 5.178-17.028 2.1425-6.5054 4.4596-12.953 6.8143-19.384 9.2287-25.208 19.543-50.016 30.62-74.467 3.8978-8.6041 8.0329-17.099 12.049-25.648 3.7777-8.1004 7.6727-16.147 11.333-24.301 3.2632-7.2693 6.3454-14.619 9.4355-21.963 7.6953-18.29 15.157-36.742 20.856-55.769 2.7938-10.121 5.2109-20.329 7.338-30.611 0.39857-2.0542 1.0298-5.2241 1.3728-7.3113 0.65492-3.9854 0.97793-8.0225 1.8363-11.975 0.65594-3.7853 1.2183-7.5852 1.829-11.378l2.5354-1.2567z" clip-path="url(#a)"/>
   <path transform="translate(2 -47.638)" d="m137.69 638.78c0.01 8.019-0.0996 16.032-0.37384 24.047-0.11343 2.4947-0.19355 4.9911-0.3403 7.4841-0.43681 7.4203-1.0462 13.845-1.6886 21.369-1.5034 17.607-3.1908 35.194-4.8656 52.786-3.2691 35.719-7.1177 71.389-9.4998 107.19-1.6096 24.188-1.8544 34.597-2.8019 58.755-0.88996 30.788-3.593 61.48-6.7393 92.106l-2.012 0.9983c3.3983-30.67 6.2196-61.422 7.1229-92.282 0.905-22.862 1.2677-35.882 2.79-58.756 0.64078-9.6284 1.469-19.244 2.2536-28.861 2.1278-26.083 4.6166-52.131 6.9784-78.194 2.4424-27.105 5.2201-54.208 6.4538-81.402 0.23667-7.9828 0.32768-15.965 0.2038-23.951l2.5188-1.2834z" clip-path="url(#a)"/>
   <path transform="translate(0 -47.638)" d="m164.99 663.22c1.6227 9.4281 2.7756 18.925 3.8627 28.427 1.4638 13.121 2.2292 26.311 2.6686 39.503 0.17909 5.3767 0.37434 10.755 0.36969 16.135-0.0151 17.433-0.72542 26.43-1.6411 44.39-2.4118 36.791-5.6669 73.532-6.8036 110.4-0.23492 7.619-0.43381 15.242-0.40099 22.864 0.0287 6.67 0.39038 13.334 0.58557 20.002 0.49984 14.747 2.3427 29.405 4.9114 43.922 1.3648 7.7134 3.1305 15.348 4.8732 22.982 0.92549 3.9675 1.8352 7.9374 2.5304 11.952l-2.4649 1.3077c-0.64724-4.0317-1.5119-8.0209-2.3976-12.006-4.8149-22.117-8.8322-44.479-9.3644-67.177-0.16663-6.6855-0.50145-13.369-0.49988-20.056 2e-3 -7.6434 0.24891-15.286 0.50998-22.925 1.2594-36.848 4.4639-73.574 6.7367-110.36 0.36931-8.0831 0.85384-16.162 1.1079-24.249 0.79116-25.182-0.13874-50.442-3.012-75.475-1.1307-9.466-2.3091-18.932-4.0633-28.306l2.4915-1.3218z" clip-path="url(#a)"/>
   <path transform="translate(2 -47.638)" d="m189.83 654.58c-0.0234 4.1124-0.0187 8.225-0.0245 12.337-0.0992 9.0699-1.1167 18.086-2.0069 27.101-0.41135 3.8685-1.2262 11.888-1.7832 15.549-1.4586 9.5881-3.6606 20.293-5.7388 29.592-4.1722 18.669-9.8058 41.366-14.253 59.636-10.108 40.42-7.6332 31.548-19.385 73.994-8.087 29.21-12.726 45.479-21.483 74.272-6.8071 22.382-13.887 44.68-20.816 67.024l-1.5178 0.7165c3.0883-9.8614 18.345-58.53 20.958-67.089 14.957-49.006 28.736-98.389 40.751-148.2 5.3391-22.466 9.0288-37.345 13.744-59.383 2.0677-9.6641 4.016-19.614 5.4439-29.426 0.57067-3.9215 1.3041-11.42 1.7251-15.513 0.8505-8.9887 1.8312-17.976 1.8948-27.016-6e-3 -4.1042-1e-3 -8.2084-0.0245-12.312l2.5161-1.282z" clip-path="url(#a)"/>
  </g>
  <g transform="matrix(.71114 0 0 .71114 120.2 417.46)" fill="#d9bf76" filter="url(#b)">
   <path transform="translate(2 -47.638)" d="m140.68 655.62c-10.001 18.552-18.592 37.823-27.361 56.976-16.193 35.69-32.165 71.49-47.076 107.74-3.2104 7.8042-6.3263 15.647-9.4895 23.47-13.659 34.038-26.32 68.467-38.155 103.18-2.995 9.105-6.0577 18.195-8.5434 27.456l-0.48702 1.6872-2.5255 1.1972 0.50569-1.6899c2.5682-9.3148 5.7298-18.449 8.813-27.603 12.114-34.744 24.916-69.251 38.611-103.4 3.1649-7.8251 6.2851-15.668 9.4948-23.475 14.879-36.191 30.775-71.951 46.829-107.63 8.6385-19.051 17.109-38.206 26.824-56.741l2.56-1.1582z" clip-path="url(#a)"/>
   <path transform="translate(2 -47.638)" d="m152.05 662.34c1.4363 18.376-1.7176 36.765-4.3307 54.89-3.8032 23.659-8.9624 47.074-14.631 70.348-5.6123 23.044-9.5393 37.877-16.312 60.861-3.3162 11.254-6.8794 22.433-10.319 33.649-11.144 35.807-23.91 71.08-37.306 106.1-8.768 22.92-15.689 40.969-25.869 63.084-3.6852 8.0061-7.8154 15.8-11.723 23.7-7.5264 13.911-15.547 27.643-25.433 40.036-2.1048 2.6381-5.9828 7.0682-8.8528 9.4221-0.75084 0.6159-1.6495 1.0253-2.4742 1.538l-2.568 0.9919c0.85623-0.5047 1.7903-0.8959 2.5687-1.5139 2.9083-2.3093 6.9604-6.8684 9.0684-9.4659 10.08-12.421 18.269-26.222 25.943-40.216 3.9685-7.9241 8.1677-15.737 11.906-23.772 10.366-22.284 17.183-40.012 26.053-63.16 13.408-34.989 26.143-70.249 37.229-106.05 3.4153-11.203 6.9563-22.369 10.246-33.61 6.6919-22.867 10.62-37.833 16.137-60.768 5.5839-23.215 10.644-46.575 14.319-70.176 1.9441-14.038 2.6001-17.229 3.7212-30.577 0.6702-7.9791 1.0306-16.022 0.12302-23.998l2.5058-1.3084z" clip-path="url(#a)"/>
   <path transform="translate(2 -47.638)" d="m178.15 628.44c-2.4676 9.9236-5.3086 19.751-8.159 29.571-8.5597 28.909-16.74 57.929-24.974 86.932-16.965 57.738-33.624 115.56-50.082 173.45-12.905 45.55-24.905 91.349-37.536 136.98-2.6278 9.2493-5.2918 18.488-8.0005 27.714l-2.3635 1.1189c2.8262-9.2632 5.5873-18.546 8.289-27.846 12.936-45.664 25.068-91.551 38.025-137.21 16.496-57.792 33.113-115.55 49.764-173.3 8.1118-28.931 16.151-57.884 24.551-86.733 2.7969-9.7761 5.5946-19.559 7.9515-29.451l2.5336-1.2243z" clip-path="url(#a)"/>
   <path transform="translate(2 -47.638)" d="m164.43 595.91c-3.9739 7.7966-7.5713 15.772-11.047 23.8-11.428 28.119-20.699 57.054-30.32 85.824-17.823 54.267-34.029 109.04-50.647 163.68-12.503 42.245-25.127 84.464-36.274 127.09-4.3232 16.532-8.0245 31.877-12.075 48.403-4.8575 20.157-9.4689 40.376-13.886 60.634l-2.3485 1.1325c4.6219-20.334 9.3884-40.636 14.386-60.881 3.9569-15.799 8.1798-32.853 12.326-48.527 11.275-42.621 23.863-84.873 36.37-127.14 16.437-54.595 32.637-109.27 50.249-163.5 9.4944-28.696 18.631-57.556 29.865-85.634 3.4098-7.9995 6.9646-15.933 10.821-23.728l2.5798-1.1537z" clip-path="url(#a)"/>
   <path transform="translate(2 -47.638)" d="m184.03 597.54c-1.4741 12.089-4.2101 23.967-6.9069 35.827-6.4416 26.419-11.768 53.093-17.155 79.741-8.7916 43.49-4.24 20.662-13.581 68.294-17.671 79.111-33.98 158.51-50.514 237.87-5.0858 24.2-2.7355 12.983-7.0565 33.649l-2.1097 1.0194c4.5716-20.781 2.0928-9.5039 7.4342-33.832 17.16-79.305 33.767-158.73 50.881-238.04 7.596-39.718 5.9067-31.24 13.196-68.108 4.3772-22.14 8.7548-44.293 13.614-66.334 0.97127-4.4053 2.0417-8.7881 3.0626-13.182 2.6163-11.797 5.2824-23.614 6.6109-35.641l2.5239-1.2597z" clip-path="url(#a)"/>
   <path transform="translate(2 -47.638)" d="m167.01 654.06c-4.0377 10.733-8.9068 21.133-13.632 31.574-8.2177 18.156-5.0951 11.316-14.089 30.564-22.638 47.321-45.294 94.631-67.232 142.28-19.406 42.159-35.71 85.659-50.975 129.46l-3.7238 11.083-2.2111 1.0366 3.845-11.143c9.5752-26.909 19.494-53.678 30.157-80.179 3.4768-8.6407 6.9469-17.286 10.612-25.848 3.3935-7.9283 7.0407-15.746 10.561-23.618 21.922-47.57 44.592-94.785 66.946-142.15 8.5404-18.417 6.1339-13.054 13.928-30.487 4.6368-10.37 9.4236-20.705 13.285-31.397l2.5297-1.175z" clip-path="url(#a)"/>
   <path transform="translate(2 -47.638)" d="m173.25 670.87c-1.3044 7.5176-2.2626 15.099-3.7388 22.587-1.9539 9.911-4.2526 19.012-6.614 28.883-13.394 51.669-27.85 103.06-41.067 154.77-10.69 41.827-12.872 51.881-22.566 92.948l-1.1182 0.53729c9.4591-39.623 12.443-52.744 22.689-93.01 13.099-51.481 27.289-102.68 40.007-154.26 2.3183-9.9101 4.5345-18.83 6.4157-28.769 1.4086-7.4418 2.3021-14.975 3.4436-22.459l2.5484-1.229z" clip-path="url(#a)"/>
   <path transform="translate(2 -47.638)" d="m160.14 683.38c-8.2024 19.216-16.763 38.278-25.489 57.262-17.135 36.424-34.925 72.538-51.977 109-5.6174 12.012-11.295 23.998-16.658 36.125-6.2514 14.136-12.121 28.439-18.181 42.658l-17.374 45.059-1.0435 0.48427 17.308-45.033c5.9896-14.188 11.783-28.461 17.969-42.565 5.3099-12.108 10.937-24.074 16.514-36.061 16.919-36.363 34.589-72.375 51.459-108.76 8.5808-18.872 17.006-37.82 24.92-56.983l2.5535-1.1851z" clip-path="url(#a)"/>
   <path transform="translate(2 -47.638)" d="m173.55 696.24c1.8553 28.902 0.82522 57.883 0.10527 86.804-2.0284 69.189-6.272 138.29-10.727 207.35l-1.6945 24.629-1.7728 0.8873 1.8706-24.716c4.8189-69.025 8.9509-138.11 10.627-207.29 0.55277-28.779 1.373-57.643-0.88275-86.375l2.4747-1.2893z" clip-path="url(#a)"/>
   <path transform="translate(2 -47.638)" d="m168.39 706.96c-1.285 18.805-3.7625 37.518-6.8892 56.101-1.168 6.942-2.4721 13.861-3.7081 20.791-8.7058 43.567-18.171 86.979-26.925 130.54-6.5419 32.553-7.08 36.044-13 67.834l-1.519 0.73883c6.053-32.041 6.5342-35.069 13.124-67.897 8.7215-43.446 18.076-86.765 26.422-130.29 1.2057-6.9137 2.4835-13.815 3.6171-20.741 3.0249-18.481 5.3993-37.102 6.3915-55.809l2.4865-1.267z" clip-path="url(#a)"/>
   <path transform="translate(2 -47.638)" d="m154.88 645.71c-13.275 27.732-25.911 55.77-38.655 83.75-39 84.342-78.297 168.55-117.45 252.82l-1.0899 0.49679c39.221-84.045 78.462-168.09 116.82-252.53 12.538-27.825 25.016-55.681 37.816-83.386l2.5594-1.1498z" clip-path="url(#a)"/>
   <path transform="translate(2 -47.638)" d="m137.45 724.45c-4.9924 24.298-11.136 48.336-17.166 72.393-8.3172 32.701-16.754 65.384-26.24 97.771-4.4336 15.136-8.867 30.278-13.759 45.273-12.636 38.734-16.726 47.629-31.191 84.424l-14.673 31.955-1.4652 0.6684 14.907-32.054c14.567-36.723 18.809-45.793 31.349-84.486 4.8455-14.951 9.1873-30.062 13.538-45.164 9.306-32.305 17.54-64.915 25.722-97.518 5.8585-23.928 11.9-47.832 16.418-72.059l2.5602-1.2024z" clip-path="url(#a)"/>
   <path transform="translate(2 -47.638)" d="m151.66 638.04c-3.3119 8.547-5.8236 17.395-8.5193 26.151-9.5215 31.981-18.841 64.021-27.965 96.118-2.7892 10.244-5.5692 20.491-8.3677 30.733-5.9342 21.718-17.612 64.151-23.227 84.984-11.423 42.38-22.46 84.859-33.384 127.37l-7.4652 29.552-1.6024 0.7664 7.7163-29.672c21.233-81.038 42.872-161.97 64.55-242.89 8.903-32.024 18.125-63.956 27.423-95.867 2.628-8.7255 5.1008-17.525 8.2709-26.072l2.5707-1.1772z" clip-path="url(#a)"/>
   <path transform="translate(2 -47.638)" d="m190.38 696.04c-2.5622 13.481-4.0748 27.151-5.9369 40.742-3.248 23.129-7.332 46.131-11.33 69.138-1.8546 10.674-3.589 21.369-5.5928 32.016-3.0144 16.016-15.55 77.981-18.524 92.745l-9.5865 47.535-1.0279 0.49821 9.6055-47.544c6.7498-33.893 11.848-58.728 17.996-92.484 1.9371-10.636 3.6789-21.306 5.4882-31.964 3.8902-22.916 7.7366-45.845 10.83-68.885 1.7545-13.528 3.173-27.123 5.539-40.561l2.5383-1.2363z" clip-path="url(#a)"/>
   <path transform="translate(2 -47.638)" d="m157.68 590.47c-0.90602 16.75-2.4389 33.467-4.0628 50.162-0.67793 6.3109-1.3011 12.628-2.0338 18.933-3.1081 26.744-7.0301 53.352-11.858 79.843-6.4548 35.417-11.236 57.107-18.8 93.481-15.215 71.577-7.753 36.065-22.394 106.53l-0.86753 0.41982c14.71-70.477 7.2496-34.967 22.386-106.53 3.5047-17.379 7.1234-34.735 10.514-52.137 8.9969-46.175 16.756-92.637 20.989-139.52 1.5107-16.608 2.9457-33.244 3.6162-49.91l2.5107-1.2793z" clip-path="url(#a)"/>
   <path transform="translate(2 -47.638)" d="m164.03 690.48c-0.16384 1.1176-0.34883 2.2322-0.49152 3.3527-1.4062 11.041-2.4225 22.167-3.5347 33.236-1.2669 12.608-3.7718 38.605-4.9151 50.41-3.5344 34.551-3.6389 37.541-8.7294 76.481-2.3795 18.202-4.6724 36.421-7.5293 54.554-2.8116 17.846-6.0592 35.624-9.473 53.365-2.9846 15.511-6.4798 30.919-9.7196 46.378l-1.0615 0.5132c8.7085-40.738 12.868-57.586 19.435-99.852 2.8091-18.081 5.0026-36.253 7.2466-54.413 3.6621-29.636 5.3397-47.895 8.144-76.187 2.4712-26.88 2.3105-25.018 4.5936-50.25 0.99562-11.003 1.8575-22.042 3.0866-33.025 0.12344-1.1031 0.28525-2.2015 0.42788-3.3023l2.5204-1.2599z" clip-path="url(#a)"/>
   <path transform="translate(2 -47.638)" d="m148.64 645.2c-8.4921 11.483-15.527 23.922-22.738 36.223-12.88 22.356-24.97 45.209-34.605 69.177-10.205 25.386-13.566 37.013-22.358 63.556-12.81 41.543-6.8092 21.464-18.075 60.216l-1.6502 0.78241c11.463-38.826 5.3887-18.714 18.281-60.319 8.4879-25.89 12.189-38.583 22.014-63.414 3.0751-7.7718 6.4018-15.446 9.8978-23.038 2.7208-5.9085 5.7669-11.662 8.7447-17.446 6.836-13.276 8.501-15.99 15.55-28.536 7.1086-12.231 14.028-24.605 22.352-36.07l2.5876-1.1322z" clip-path="url(#a)"/>
   <path transform="translate(2 -47.638)" d="m164.23 630.2c-1.7762 6.348-2.5213 8.9471-4.3957 16.038-7.8221 29.591-15.521 59.213-23.395 88.79-3.2309 12.269-6.3849 24.559-9.6926 36.808-2.8637 10.605-26.357 95.731-28.851 104.78-10.508 38.124-17.218 62.507-27.565 100.09l-1.0207 0.48576c22.409-80.326 44.86-160.65 65.593-241.43 8.9923-34.776 17.921-69.568 26.821-104.37l2.5055-1.1947z" clip-path="url(#a)"/>
   <path transform="translate(2 -47.638)" d="m168.15 700.67c-3.7806 18.918-8.1782 37.7-12.549 56.489-17.337 71.436-32.67 143.34-48.016 215.22-11.399 51.985-5.8939 27.144-16.488 74.53l-1.4672 0.7069c10.898-47.502 5.2716-22.608 16.831-74.693 15.165-71.714 30.51-143.4 47.126-214.79 4.2405-18.695 8.5332-37.381 12.034-56.232l2.5292-1.2264z" clip-path="url(#a)"/>
   <path transform="translate(2 -47.638)" d="m183.31 685.02c-1.1521 17.343-3.3561 34.595-5.4835 51.839-5.4544 42.223-12.86 84.184-21.571 125.85-2.3313 11.152-4.8636 22.261-7.2954 33.391-11.967 47.512-5.6924 23.989-18.8 70.576l-1.4282 0.67897c13.14-46.572 6.8839-23.062 18.744-70.538 2.4302-11.128 4.9768-22.232 7.2907-33.385 8.6212-41.555 15.678-83.433 20.971-125.54 2.03-17.165 4.1667-34.342 5.0624-51.613l2.5105-1.2595z" clip-path="url(#a)"/>
   <path transform="translate(2)" d="m196.8 638.42c-0.34879 3.0616-0.84091 6.105-1.2051 9.1646-0.56227 4.7239-1.7596 16.629-2.2009 20.542-1.5743 13.961-3.253 27.91-4.859 41.868-1.0692 8.8907-2.0972 17.786-3.2078 26.672-1.2172 9.7384-2.2884 19.499-3.7754 29.199-4.4531 29.05-10.642 61.902-16.95 90.388-8.8228 39.842-14.001 57.661-24.338 96.384l-1.0682 0.5094c10.734-39.771 15.434-55.372 24.409-96.41 6.8346-31.252 11.699-58.633 16.318-90.067 1.4243-9.6927 2.5098-19.432 3.6942-29.157 1.0799-8.8667 2.066-17.745 3.0989-26.617 1.0513-9.6456 3.4162-31.171 4.4986-41.686 0.70132-6.8134 1.2663-13.641 2.0017-20.451 0.32774-3.0348 0.78356-6.055 1.0732-9.0943l2.5109-1.2446z" clip-path="url(#c)"/>
   <path transform="translate(2 -47.638)" d="m147.53 695.24c-2.3628 10.498-4.7582 20.999-7.5534 31.393-1.3954 5.1887-2.89 10.35-4.3349 15.525-2.2731 7.7074-4.4958 15.43-6.8192 23.122-9.1569 30.317-12.892 41.707-23.013 73.485-14.802 46.474-29.682 92.92-44.338 139.44l-12.79 40.845-1.2132 0.5722 12.968-40.929c23.882-75.411 5.4331-17.176 30.119-95.039 14.803-46.691 29.856-93.323 43.019-140.51 4.1751-15.462 8.2912-30.952 11.412-46.669l2.5431-1.2332z" clip-path="url(#a)"/>
   <path transform="translate(2 -47.638)" d="m131.73 673.82c-2.9326 9.0236-5.9354 18.024-8.8805 27.043-9.3634 29.293-19.775 58.241-30.103 87.204-15.155 42.499-10.306 28.965-27.042 74.141-18.914 50.536-38.136 100.96-57.155 151.45l-1.4975 0.6958c19.288-50.468 38.557-100.94 57.42-151.57 19.541-53.31 38.987-106.69 56.093-160.84 2.8552-8.975 5.7751-17.929 8.6107-26.91l2.5539-1.2089z" clip-path="url(#a)"/>
   <path transform="translate(2 -47.638)" d="m180.06 650.44c-3.2906 6.559-6.3273 13.244-9.3868 19.914-8.0011 17.394-16.19 34.7-24.463 51.967-21.96 43.794-42.028 88.503-62.051 133.21-15.346 33.94-30.562 67.937-45.529 102.05l-2.3129 1.0591c15.37-34.135 30.748-68.266 46.21-102.36 12.244-27.307 24.57-54.571 37.09-81.753 3.4499-7.4903 6.8575-15 10.376-22.459 4.0128-8.5062 9.7227-19.997 14.047-28.754 8.2155-17.207 16.282-34.485 24.188-51.837 3.037-6.6463 6.0571-13.303 9.2656-19.869l2.5662-1.161z" clip-path="url(#a)"/>
   <path transform="translate(2 -47.638)" d="m144.11 599.76c-0.20512 8.4952 0.38839 16.976 1.0383 25.44 1.5759 19.395 3.2946 38.776 4.7078 58.183 0.27763 4.1281 0.62587 8.252 0.8329 12.384 0.24363 4.8625 0.38127 9.73 0.51891 14.597 0.4496 15.898 0.56657 31.816 0.0271 47.714-0.22313 6.5749-0.6077 13.143-0.91155 19.715-0.58946 7.5456-1.1204 15.096-1.7684 22.637-1.5304 17.81-2.5497 27.952-4.9551 45.744-1.6799 12.426-4.2591 28.62-6.4884 41.12-1.031 5.7816-2.1878 11.54-3.2817 17.31-4.5845 22.713-9.505 45.356-14.358 68.013-1.3931 6.8595-2.9702 13.688-3.9305 20.626-0.54595 4.2402-0.68289 8.5158-0.73919 12.786-0.0205 2.0597 4e-3 4.1193 0.0128 6.1789 0.0222 1.2787 0.17901 0.4932-2.2684 0.7933l2.5466-1.2149c-2.9334 2.3341-2.8016 3.418-2.7962 1.7062-0.0114-2.0654-0.0205-4.1309 9e-3 -6.1962 0.0749-4.2858 0.20925-8.578 0.75971-12.834 0.95913-6.9711 2.5756-13.823 4.0372-20.701 5.0452-22.697 10.121-45.387 14.718-68.18 3.754-19.463 7.291-38.852 9.9576-58.506 2.2328-16.457 3.5499-29.214 4.9381-45.726 0.63242-7.522 1.1184-15.056 1.6776-22.584 0.2726-6.5538 0.6171-13.105 0.81779-19.661 0.7611-24.864 0.30108-49.791-1.5188-74.598-1.4521-19.38-3.2176-38.732-4.8763-58.094-0.6951-8.4406-1.3099-16.896-1.2177-25.372l2.5107-1.2793z" clip-path="url(#a)"/>
   <path transform="translate(2 -47.638)" d="m179.11 603.33c-0.44565 11.092-1.9834 22.098-3.5539 33.074-0.82837 4.5596-1.5586 9.138-2.4851 13.679-1.3914 6.8184-2.928 13.607-4.4676 20.393-8.4695 37.333-18.419 74.303-28.043 111.35-14.547 55.531-28.61 111.19-41.539 167.12-4.0276 18.253-8.262 36.482-11.431 54.911l-2.4458 1.1924c3.3992-18.518 7.7783-36.842 11.976-55.189 13.229-55.952 27.391-111.68 41.922-167.31 7.5195-29.268 15.295-58.48 22.298-87.877 3.2104-13.476 6.9212-29.823 9.6029-43.553 0.88285-4.5201 1.5794-9.0746 2.3692-13.612 1.4998-10.917 2.9461-21.872 3.2868-32.899l2.5107-1.2793z" clip-path="url(#a)"/>
   <path transform="translate(2 -47.638)" d="m181.02 611.6c-3.1618 9.1407-5.6819 18.482-8.5342 27.721-1.6398 5.311-3.3282 10.607-4.9923 15.91-3.135 8.8052-16.875 47.438-19.38 54.28-6.1374 16.763-12.401 33.479-18.628 50.209-6.8662 18.447-13.718 36.899-20.651 55.321-13.024 34.604-26.239 69.025-39.446 103.56l-15.693 40.976-1.1808 0.54785 15.977-41.107c14.302-37.121 25.572-66.146 39.643-103.65 19.81-52.797 38.976-105.84 57.307-159.17 4.3833-14.455 8.5261-28.979 13.019-43.398l2.5602-1.2024z" clip-path="url(#a)"/>
   <path transform="translate(2 -47.638)" d="m155.39 597.3c-2.6344 18.078-4.112 36.309-5.7862 54.495-3.4055 36.729-7.6407 73.38-12.889 109.89-1.6641 11.577-3.3052 23.16-5.2612 34.691-2.0825 12.277-4.5684 24.482-6.8527 36.723-8.6037 40.987-19.417 81.459-30.685 121.78l-1.8276 0.86852c2.1752-7.5768 4.4164-15.135 6.5255-22.73 9.1198-32.843 17.589-65.882 24.605-99.244 2.2612-12.228 4.7146-24.422 6.7836-36.683 1.9457-11.531 3.616-23.108 5.259-34.687 5.1662-36.408 9.0709-72.978 12.324-109.6 1.5595-18.106 2.9662-36.24 5.2562-54.272l2.5484-1.229z" clip-path="url(#a)"/>
   <path transform="translate(2 -47.638)" d="m151.18 636.57c-0.63626 3.805-1.2127 7.6194-1.8758 11.42-0.86513 3.9552-1.2078 7.9939-1.8671 11.982-0.3593 2.1737-0.96369 5.1845-1.3823 7.33-2.1471 10.312-4.5826 20.548-7.4414 30.684-5.8418 19.108-13.454 37.624-21.268 55.993-3.131 7.3597-6.2456 14.728-9.5408 22.015-3.6938 8.169-7.616 16.233-11.424 24.349-4.0325 8.5568-8.185 17.058-12.098 25.671-11.088 24.408-21.364 49.185-30.494 74.392-2.3217 6.4097-4.5909 12.84-6.6969 19.324-1.8253 5.6198-3.3962 11.319-5.0943 16.978-5.2036 17.861-8.3519 36.292-9.1332 54.875l-0.02769 3.1004-2.4494 1.2435 0.06313-3.1283c0.98288-18.676 4.2081-37.204 9.5322-55.138 1.726-5.676 3.3221-11.393 5.178-17.028 2.1425-6.5054 4.4596-12.953 6.8143-19.384 9.2287-25.208 19.543-50.016 30.62-74.467 3.8978-8.6041 8.0329-17.099 12.049-25.648 3.7777-8.1004 7.6727-16.147 11.333-24.301 3.2632-7.2693 6.3454-14.619 9.4355-21.963 7.6953-18.29 15.157-36.742 20.856-55.769 2.7938-10.121 5.2109-20.329 7.338-30.611 0.39857-2.0542 1.0298-5.2241 1.3728-7.3113 0.65492-3.9854 0.97793-8.0225 1.8363-11.975 0.65594-3.7853 1.2183-7.5852 1.829-11.378l2.5354-1.2567z" clip-path="url(#a)"/>
   <path transform="translate(2 -47.638)" d="m137.69 638.78c0.01 8.019-0.0996 16.032-0.37384 24.047-0.11343 2.4947-0.19355 4.9911-0.3403 7.4841-0.43681 7.4203-1.0462 13.845-1.6886 21.369-1.5034 17.607-3.1908 35.194-4.8656 52.786-3.2691 35.719-7.1177 71.389-9.4998 107.19-1.6096 24.188-1.8544 34.597-2.8019 58.755-0.88996 30.788-3.593 61.48-6.7393 92.106l-2.012 0.9983c3.3983-30.67 6.2196-61.422 7.1229-92.282 0.905-22.862 1.2677-35.882 2.79-58.756 0.64078-9.6284 1.469-19.244 2.2536-28.861 2.1278-26.083 4.6166-52.131 6.9784-78.194 2.4424-27.105 5.2201-54.208 6.4538-81.402 0.23667-7.9828 0.32768-15.965 0.2038-23.951l2.5188-1.2834z" clip-path="url(#a)"/>
   <path transform="translate(0 -47.638)" d="m164.99 663.22c1.6227 9.4281 2.7756 18.925 3.8627 28.427 1.4638 13.121 2.2292 26.311 2.6686 39.503 0.17909 5.3767 0.37434 10.755 0.36969 16.135-0.0151 17.433-0.72542 26.43-1.6411 44.39-2.4118 36.791-5.6669 73.532-6.8036 110.4-0.23492 7.619-0.43381 15.242-0.40099 22.864 0.0287 6.67 0.39038 13.334 0.58557 20.002 0.49984 14.747 2.3427 29.405 4.9114 43.922 1.3648 7.7134 3.1305 15.348 4.8732 22.982 0.92549 3.9675 1.8352 7.9374 2.5304 11.952l-2.4649 1.3077c-0.64724-4.0317-1.5119-8.0209-2.3976-12.006-4.8149-22.117-8.8322-44.479-9.3644-67.177-0.16663-6.6855-0.50145-13.369-0.49988-20.056 2e-3 -7.6434 0.24891-15.286 0.50998-22.925 1.2594-36.848 4.4639-73.574 6.7367-110.36 0.36931-8.0831 0.85384-16.162 1.1079-24.249 0.79116-25.182-0.13874-50.442-3.012-75.475-1.1307-9.466-2.3091-18.932-4.0633-28.306l2.4915-1.3218z" clip-path="url(#a)"/>
   <path transform="translate(2 -47.638)" d="m189.83 654.58c-0.0234 4.1124-0.0187 8.225-0.0245 12.337-0.0992 9.0699-1.1167 18.086-2.0069 27.101-0.41135 3.8685-1.2262 11.888-1.7832 15.549-1.4586 9.5881-3.6606 20.293-5.7388 29.592-4.1722 18.669-9.8058 41.366-14.253 59.636-10.108 40.42-7.6332 31.548-19.385 73.994-8.087 29.21-12.726 45.479-21.483 74.272-6.8071 22.382-13.887 44.68-20.816 67.024l-1.5178 0.7165c3.0883-9.8614 18.345-58.53 20.958-67.089 14.957-49.006 28.736-98.389 40.751-148.2 5.3391-22.466 9.0288-37.345 13.744-59.383 2.0677-9.6641 4.016-19.614 5.4439-29.426 0.57067-3.9215 1.3041-11.42 1.7251-15.513 0.8505-8.9887 1.8312-17.976 1.8948-27.016-6e-3 -4.1042-1e-3 -8.2084-0.0245-12.312l2.5161-1.282z" clip-path="url(#a)"/>
  </g>
  <path d="m299.64 566.54 31.541 8.4514c41.302 11.067 62.721 52.552 54.576 94.528l-40.628 209.36c-9.4474 48.683-61.731 76.131-109.63 63.296l-36.581-9.8018c-47.901-12.835-79.456-62.748-63.296-109.63l69.494-201.62c13.933-40.425 53.226-65.642 94.528-54.576z" fill="#ffbe18"/>
  <path transform="matrix(.71114 0 0 .71114 -20.615 443.32)" d="m427.41 169.49c-46.719-0.28245-87.947 32.038-104.19 79.156l-90.656 262.94c-0.22774 0.65986-0.90469 3.496-1 4.1875s-0.19699 3.5844-0.15625 4.2812 0.481 3.6056 0.65625 4.2812 1.1969 3.4024 1.5 4.0312 1.7994 3.1295 2.2188 3.6875 2.3865 2.6902 2.9062 3.1562 2.8684 2.2063 3.4688 2.5625 3.2482 1.5796 3.9062 1.8125a5.683 5.683 0 0 0 0.0312 0c3.1289 1.1036 6.5591 2.2152 10.312 3.1562 41.859 10.495 86.535-3.0222 124.81-33.5 38.412-30.585 70.382-78.091 86.812-135.47 21.46-74.942 10.928-147.28-22.188-194.78-0.48368-0.69505-2.8354-3.3442-3.4688-3.9062s-3.5336-2.5711-4.2812-2.9688-4.0549-1.6952-4.875-1.9062c-0.28356-0.073-1.076-0.14462-1.7812-0.25l-0.15625-0.0625-0.46875-0.15625c-0.95098-0.26613-0.88277-0.17605-1-0.1875-0.93787-0.0916-0.65125-0.0249-1-0.0312s-0.80608-0.0277-1.4062-0.0312z" fill="url(#f)" filter="url(#i)"/>
  <path transform="matrix(.71114 0 0 .71114 -20.615 409.44)" d="m280.36 723.57s8.729 3.656 19.434 7.8356c9.7805 3.8188 52.639 15.932 60.566 18.236 18.719 2.2613 5.6101 0.71821 26.429 4.2857l-3.9286 18.929s-38.091-9.2187-55.357-17.5c-17.457-8.3728-47.143-31.786-47.143-31.786z" fill="#a17000" filter="url(#g)" opacity=".568"/>
  <path transform="matrix(.71114 0 0 .71114 -20.615 443.32)" d="m448.64 172.81 43.749 11.722c57.287 15.35 77.401 74.309 66.337 133.58l-54.376 291.29c-12.801 68.573-89.206 106.81-146.56 91.44l-50.74-13.596c-66.441-17.803-110.01-87.775-87.351-153.72l97.445-283.59c19.537-56.86 74.209-92.476 131.5-77.126z" fill="url(#e)" filter="url(#j)"/>
 </g>
</svg>
